<?xml version="1.0" encoding="utf-8" standalone="no"?>
<!DOCTYPE svg PUBLIC "-//W3C//DTD SVG 1.1//EN"
  "http://www.w3.org/Graphics/SVG/1.1/DTD/svg11.dtd">
<!-- Created with matplotlib (https://matplotlib.org/) -->
<svg height="345.6pt" version="1.1" viewBox="0 0 460.8 345.6" width="460.8pt" xmlns="http://www.w3.org/2000/svg" xmlns:xlink="http://www.w3.org/1999/xlink">
 <defs>
  <style type="text/css">
*{stroke-linecap:butt;stroke-linejoin:round;}
  </style>
 </defs>
 <g id="figure_1">
  <g id="patch_1">
   <path d="M 0 345.6 
L 460.8 345.6 
L 460.8 0 
L 0 0 
z
" style="fill:#ffffff;"/>
  </g>
  <g id="axes_1">
   <g id="patch_2">
    <path d="M 57.6 307.584 
L 414.72 307.584 
L 414.72 41.472 
L 57.6 41.472 
z
" style="fill:#ffffff;"/>
   </g>
   <g id="PolyCollection_1">
    <defs>
     <path d="M 73.832727 -176.889049 
L 73.832727 -38.016 
L 138.763636 -38.016 
L 203.694545 -38.016 
L 268.625455 -38.016 
L 333.556364 -38.016 
L 398.487273 -38.016 
L 398.487273 -272.120421 
L 398.487273 -272.120421 
L 333.556364 -257.937902 
L 268.625455 -239.97481 
L 203.694545 -217.723536 
L 138.763636 -152.15934 
L 73.832727 -176.889049 
z
" id="m072a419aa0" style="stroke:#0000cd;"/>
    </defs>
    <g clip-path="url(#p36824cbec6)">
     <use style="fill:#0000cd;stroke:#0000cd;" x="0" xlink:href="#m072a419aa0" y="345.6"/>
    </g>
   </g>
   <g id="PolyCollection_2">
    <defs>
     <path d="M 73.832727 -94.268511 
L 73.832727 -38.016 
L 138.763636 -38.016 
L 203.694545 -38.016 
L 268.625455 -38.016 
L 333.556364 -38.016 
L 398.487273 -38.016 
L 398.487273 -77.435862 
L 398.487273 -77.435862 
L 333.556364 -78.322574 
L 268.625455 -77.9423 
L 203.694545 -73.767988 
L 138.763636 -95.153067 
L 73.832727 -94.268511 
z
" id="mcb87a265eb" style="stroke:#ff00ff;"/>
    </defs>
    <g clip-path="url(#p36824cbec6)">
     <use style="fill:#ff00ff;stroke:#ff00ff;" x="0" xlink:href="#mcb87a265eb" y="345.6"/>
    </g>
   </g>
   <g id="PolyCollection_3">
    <defs>
     <path d="M 73.832727 -48.439022 
L 73.832727 -38.016 
L 138.763636 -38.016 
L 203.694545 -38.016 
L 268.625455 -38.016 
L 333.556364 -38.016 
L 398.487273 -38.016 
L 398.487273 -49.210693 
L 398.487273 -49.210693 
L 333.556364 -49.011003 
L 268.625455 -48.101725 
L 203.694545 -46.954489 
L 138.763636 -47.769856 
L 73.832727 -48.439022 
z
" id="m0d0bb876c0" style="stroke:#228b22;"/>
    </defs>
    <g clip-path="url(#p36824cbec6)">
     <use style="fill:#228b22;stroke:#228b22;" x="0" xlink:href="#m0d0bb876c0" y="345.6"/>
    </g>
   </g>
   <g id="PolyCollection_4">
    <defs>
     <path d="M 73.832727 -49.702654 
L 73.832727 -38.016 
L 138.763636 -38.016 
L 203.694545 -38.016 
L 268.625455 -38.016 
L 333.556364 -38.016 
L 398.487273 -38.016 
L 398.487273 -55.718223 
L 398.487273 -55.718223 
L 333.556364 -54.370206 
L 268.625455 -51.974612 
L 203.694545 -50.732109 
L 138.763636 -48.328 
L 73.832727 -49.702654 
z
" id="m4e84a1b9fa" style="stroke:#9400d3;"/>
    </defs>
    <g clip-path="url(#p36824cbec6)">
     <use style="fill:#9400d3;stroke:#9400d3;" x="0" xlink:href="#m4e84a1b9fa" y="345.6"/>
    </g>
   </g>
   <g id="PolyCollection_5">
    <defs>
     <path d="M 73.832727 -46.05032 
L 73.832727 -38.016 
L 138.763636 -38.016 
L 203.694545 -38.016 
L 268.625455 -38.016 
L 333.556364 -38.016 
L 398.487273 -38.016 
L 398.487273 -46.54151 
L 398.487273 -46.54151 
L 333.556364 -46.85829 
L 268.625455 -46.69511 
L 203.694545 -46.63928 
L 138.763636 -45.70528 
L 73.832727 -46.05032 
z
" id="m90cc4e40dd" style="stroke:#dc143c;"/>
    </defs>
    <g clip-path="url(#p36824cbec6)">
     <use style="fill:#dc143c;stroke:#dc143c;" x="0" xlink:href="#m90cc4e40dd" y="345.6"/>
    </g>
   </g>
   <g id="PolyCollection_6">
    <defs>
     <path d="M 73.832727 -42.781667 
L 73.832727 -38.016 
L 138.763636 -38.016 
L 203.694545 -38.016 
L 268.625455 -38.016 
L 333.556364 -38.016 
L 398.487273 -38.016 
L 398.487273 -46.840034 
L 398.487273 -46.840034 
L 333.556364 -46.849242 
L 268.625455 -45.938261 
L 203.694545 -44.897497 
L 138.763636 -42.545625 
L 73.832727 -42.781667 
z
" id="m3e7582add3" style="stroke:#d2691e;"/>
    </defs>
    <g clip-path="url(#p36824cbec6)">
     <use style="fill:#d2691e;stroke:#d2691e;" x="0" xlink:href="#m3e7582add3" y="345.6"/>
    </g>
   </g>
   <g id="PolyCollection_7">
    <defs>
     <path d="M 73.832727 -39.266168 
L 73.832727 -38.016 
L 138.763636 -38.016 
L 203.694545 -38.016 
L 268.625455 -38.016 
L 333.556364 -38.016 
L 398.487273 -38.016 
L 398.487273 -39.852705 
L 398.487273 -39.852705 
L 333.556364 -39.675661 
L 268.625455 -39.493613 
L 203.694545 -39.410241 
L 138.763636 -39.330806 
L 73.832727 -39.266168 
z
" id="m697574ceee" style="stroke:#000000;"/>
    </defs>
    <g clip-path="url(#p36824cbec6)">
     <use style="stroke:#000000;" x="0" xlink:href="#m697574ceee" y="345.6"/>
    </g>
   </g>
   <g id="matplotlib.axis_1">
    <g id="xtick_1">
     <g id="line2d_1">
      <defs>
       <path d="M 0 0 
L 0 3.5 
" id="mc493b6e0e3" style="stroke:#000000;stroke-width:0.8;"/>
      </defs>
      <g>
       <use style="stroke:#000000;stroke-width:0.8;" x="73.832727" xlink:href="#mc493b6e0e3" y="307.584"/>
      </g>
     </g>
     <g id="text_1">
      <!-- 2013 -->
      <defs>
       <path d="M 19.1875 8.296875 
L 53.609375 8.296875 
L 53.609375 0 
L 7.328125 0 
L 7.328125 8.296875 
Q 12.9375 14.109375 22.625 23.890625 
Q 32.328125 33.6875 34.8125 36.53125 
Q 39.546875 41.84375 41.421875 45.53125 
Q 43.3125 49.21875 43.3125 52.78125 
Q 43.3125 58.59375 39.234375 62.25 
Q 35.15625 65.921875 28.609375 65.921875 
Q 23.96875 65.921875 18.8125 64.3125 
Q 13.671875 62.703125 7.8125 59.421875 
L 7.8125 69.390625 
Q 13.765625 71.78125 18.9375 73 
Q 24.125 74.21875 28.421875 74.21875 
Q 39.75 74.21875 46.484375 68.546875 
Q 53.21875 62.890625 53.21875 53.421875 
Q 53.21875 48.921875 51.53125 44.890625 
Q 49.859375 40.875 45.40625 35.40625 
Q 44.1875 33.984375 37.640625 27.21875 
Q 31.109375 20.453125 19.1875 8.296875 
z
" id="DejaVuSans-50"/>
       <path d="M 31.78125 66.40625 
Q 24.171875 66.40625 20.328125 58.90625 
Q 16.5 51.421875 16.5 36.375 
Q 16.5 21.390625 20.328125 13.890625 
Q 24.171875 6.390625 31.78125 6.390625 
Q 39.453125 6.390625 43.28125 13.890625 
Q 47.125 21.390625 47.125 36.375 
Q 47.125 51.421875 43.28125 58.90625 
Q 39.453125 66.40625 31.78125 66.40625 
z
M 31.78125 74.21875 
Q 44.046875 74.21875 50.515625 64.515625 
Q 56.984375 54.828125 56.984375 36.375 
Q 56.984375 17.96875 50.515625 8.265625 
Q 44.046875 -1.421875 31.78125 -1.421875 
Q 19.53125 -1.421875 13.0625 8.265625 
Q 6.59375 17.96875 6.59375 36.375 
Q 6.59375 54.828125 13.0625 64.515625 
Q 19.53125 74.21875 31.78125 74.21875 
z
" id="DejaVuSans-48"/>
       <path d="M 12.40625 8.296875 
L 28.515625 8.296875 
L 28.515625 63.921875 
L 10.984375 60.40625 
L 10.984375 69.390625 
L 28.421875 72.90625 
L 38.28125 72.90625 
L 38.28125 8.296875 
L 54.390625 8.296875 
L 54.390625 0 
L 12.40625 0 
z
" id="DejaVuSans-49"/>
       <path d="M 40.578125 39.3125 
Q 47.65625 37.796875 51.625 33 
Q 55.609375 28.21875 55.609375 21.1875 
Q 55.609375 10.40625 48.1875 4.484375 
Q 40.765625 -1.421875 27.09375 -1.421875 
Q 22.515625 -1.421875 17.65625 -0.515625 
Q 12.796875 0.390625 7.625 2.203125 
L 7.625 11.71875 
Q 11.71875 9.328125 16.59375 8.109375 
Q 21.484375 6.890625 26.8125 6.890625 
Q 36.078125 6.890625 40.9375 10.546875 
Q 45.796875 14.203125 45.796875 21.1875 
Q 45.796875 27.640625 41.28125 31.265625 
Q 36.765625 34.90625 28.71875 34.90625 
L 20.21875 34.90625 
L 20.21875 43.015625 
L 29.109375 43.015625 
Q 36.375 43.015625 40.234375 45.921875 
Q 44.09375 48.828125 44.09375 54.296875 
Q 44.09375 59.90625 40.109375 62.90625 
Q 36.140625 65.921875 28.71875 65.921875 
Q 24.65625 65.921875 20.015625 65.03125 
Q 15.375 64.15625 9.8125 62.3125 
L 9.8125 71.09375 
Q 15.4375 72.65625 20.34375 73.4375 
Q 25.25 74.21875 29.59375 74.21875 
Q 40.828125 74.21875 47.359375 69.109375 
Q 53.90625 64.015625 53.90625 55.328125 
Q 53.90625 49.265625 50.4375 45.09375 
Q 46.96875 40.921875 40.578125 39.3125 
z
" id="DejaVuSans-51"/>
      </defs>
      <g transform="translate(61.107727 322.182437)scale(0.1 -0.1)">
       <use xlink:href="#DejaVuSans-50"/>
       <use x="63.623047" xlink:href="#DejaVuSans-48"/>
       <use x="127.246094" xlink:href="#DejaVuSans-49"/>
       <use x="190.869141" xlink:href="#DejaVuSans-51"/>
      </g>
     </g>
    </g>
    <g id="xtick_2">
     <g id="line2d_2">
      <g>
       <use style="stroke:#000000;stroke-width:0.8;" x="138.763636" xlink:href="#mc493b6e0e3" y="307.584"/>
      </g>
     </g>
     <g id="text_2">
      <!-- 2014 -->
      <defs>
       <path d="M 37.796875 64.3125 
L 12.890625 25.390625 
L 37.796875 25.390625 
z
M 35.203125 72.90625 
L 47.609375 72.90625 
L 47.609375 25.390625 
L 58.015625 25.390625 
L 58.015625 17.1875 
L 47.609375 17.1875 
L 47.609375 0 
L 37.796875 0 
L 37.796875 17.1875 
L 4.890625 17.1875 
L 4.890625 26.703125 
z
" id="DejaVuSans-52"/>
      </defs>
      <g transform="translate(126.038636 322.182437)scale(0.1 -0.1)">
       <use xlink:href="#DejaVuSans-50"/>
       <use x="63.623047" xlink:href="#DejaVuSans-48"/>
       <use x="127.246094" xlink:href="#DejaVuSans-49"/>
       <use x="190.869141" xlink:href="#DejaVuSans-52"/>
      </g>
     </g>
    </g>
    <g id="xtick_3">
     <g id="line2d_3">
      <g>
       <use style="stroke:#000000;stroke-width:0.8;" x="203.694545" xlink:href="#mc493b6e0e3" y="307.584"/>
      </g>
     </g>
     <g id="text_3">
      <!-- 2015 -->
      <defs>
       <path d="M 10.796875 72.90625 
L 49.515625 72.90625 
L 49.515625 64.59375 
L 19.828125 64.59375 
L 19.828125 46.734375 
Q 21.96875 47.46875 24.109375 47.828125 
Q 26.265625 48.1875 28.421875 48.1875 
Q 40.625 48.1875 47.75 41.5 
Q 54.890625 34.8125 54.890625 23.390625 
Q 54.890625 11.625 47.5625 5.09375 
Q 40.234375 -1.421875 26.90625 -1.421875 
Q 22.3125 -1.421875 17.546875 -0.640625 
Q 12.796875 0.140625 7.71875 1.703125 
L 7.71875 11.625 
Q 12.109375 9.234375 16.796875 8.0625 
Q 21.484375 6.890625 26.703125 6.890625 
Q 35.15625 6.890625 40.078125 11.328125 
Q 45.015625 15.765625 45.015625 23.390625 
Q 45.015625 31 40.078125 35.4375 
Q 35.15625 39.890625 26.703125 39.890625 
Q 22.75 39.890625 18.8125 39.015625 
Q 14.890625 38.140625 10.796875 36.28125 
z
" id="DejaVuSans-53"/>
      </defs>
      <g transform="translate(190.969545 322.182437)scale(0.1 -0.1)">
       <use xlink:href="#DejaVuSans-50"/>
       <use x="63.623047" xlink:href="#DejaVuSans-48"/>
       <use x="127.246094" xlink:href="#DejaVuSans-49"/>
       <use x="190.869141" xlink:href="#DejaVuSans-53"/>
      </g>
     </g>
    </g>
    <g id="xtick_4">
     <g id="line2d_4">
      <g>
       <use style="stroke:#000000;stroke-width:0.8;" x="268.625455" xlink:href="#mc493b6e0e3" y="307.584"/>
      </g>
     </g>
     <g id="text_4">
      <!-- 2016 -->
      <defs>
       <path d="M 33.015625 40.375 
Q 26.375 40.375 22.484375 35.828125 
Q 18.609375 31.296875 18.609375 23.390625 
Q 18.609375 15.53125 22.484375 10.953125 
Q 26.375 6.390625 33.015625 6.390625 
Q 39.65625 6.390625 43.53125 10.953125 
Q 47.40625 15.53125 47.40625 23.390625 
Q 47.40625 31.296875 43.53125 35.828125 
Q 39.65625 40.375 33.015625 40.375 
z
M 52.59375 71.296875 
L 52.59375 62.3125 
Q 48.875 64.0625 45.09375 64.984375 
Q 41.3125 65.921875 37.59375 65.921875 
Q 27.828125 65.921875 22.671875 59.328125 
Q 17.53125 52.734375 16.796875 39.40625 
Q 19.671875 43.65625 24.015625 45.921875 
Q 28.375 48.1875 33.59375 48.1875 
Q 44.578125 48.1875 50.953125 41.515625 
Q 57.328125 34.859375 57.328125 23.390625 
Q 57.328125 12.15625 50.6875 5.359375 
Q 44.046875 -1.421875 33.015625 -1.421875 
Q 20.359375 -1.421875 13.671875 8.265625 
Q 6.984375 17.96875 6.984375 36.375 
Q 6.984375 53.65625 15.1875 63.9375 
Q 23.390625 74.21875 37.203125 74.21875 
Q 40.921875 74.21875 44.703125 73.484375 
Q 48.484375 72.75 52.59375 71.296875 
z
" id="DejaVuSans-54"/>
      </defs>
      <g transform="translate(255.900455 322.182437)scale(0.1 -0.1)">
       <use xlink:href="#DejaVuSans-50"/>
       <use x="63.623047" xlink:href="#DejaVuSans-48"/>
       <use x="127.246094" xlink:href="#DejaVuSans-49"/>
       <use x="190.869141" xlink:href="#DejaVuSans-54"/>
      </g>
     </g>
    </g>
    <g id="xtick_5">
     <g id="line2d_5">
      <g>
       <use style="stroke:#000000;stroke-width:0.8;" x="333.556364" xlink:href="#mc493b6e0e3" y="307.584"/>
      </g>
     </g>
     <g id="text_5">
      <!-- 2017 -->
      <defs>
       <path d="M 8.203125 72.90625 
L 55.078125 72.90625 
L 55.078125 68.703125 
L 28.609375 0 
L 18.3125 0 
L 43.21875 64.59375 
L 8.203125 64.59375 
z
" id="DejaVuSans-55"/>
      </defs>
      <g transform="translate(320.831364 322.182437)scale(0.1 -0.1)">
       <use xlink:href="#DejaVuSans-50"/>
       <use x="63.623047" xlink:href="#DejaVuSans-48"/>
       <use x="127.246094" xlink:href="#DejaVuSans-49"/>
       <use x="190.869141" xlink:href="#DejaVuSans-55"/>
      </g>
     </g>
    </g>
    <g id="xtick_6">
     <g id="line2d_6">
      <g>
       <use style="stroke:#000000;stroke-width:0.8;" x="398.487273" xlink:href="#mc493b6e0e3" y="307.584"/>
      </g>
     </g>
     <g id="text_6">
      <!-- 2018 -->
      <defs>
       <path d="M 31.78125 34.625 
Q 24.75 34.625 20.71875 30.859375 
Q 16.703125 27.09375 16.703125 20.515625 
Q 16.703125 13.921875 20.71875 10.15625 
Q 24.75 6.390625 31.78125 6.390625 
Q 38.8125 6.390625 42.859375 10.171875 
Q 46.921875 13.96875 46.921875 20.515625 
Q 46.921875 27.09375 42.890625 30.859375 
Q 38.875 34.625 31.78125 34.625 
z
M 21.921875 38.8125 
Q 15.578125 40.375 12.03125 44.71875 
Q 8.5 49.078125 8.5 55.328125 
Q 8.5 64.0625 14.71875 69.140625 
Q 20.953125 74.21875 31.78125 74.21875 
Q 42.671875 74.21875 48.875 69.140625 
Q 55.078125 64.0625 55.078125 55.328125 
Q 55.078125 49.078125 51.53125 44.71875 
Q 48 40.375 41.703125 38.8125 
Q 48.828125 37.15625 52.796875 32.3125 
Q 56.78125 27.484375 56.78125 20.515625 
Q 56.78125 9.90625 50.3125 4.234375 
Q 43.84375 -1.421875 31.78125 -1.421875 
Q 19.734375 -1.421875 13.25 4.234375 
Q 6.78125 9.90625 6.78125 20.515625 
Q 6.78125 27.484375 10.78125 32.3125 
Q 14.796875 37.15625 21.921875 38.8125 
z
M 18.3125 54.390625 
Q 18.3125 48.734375 21.84375 45.5625 
Q 25.390625 42.390625 31.78125 42.390625 
Q 38.140625 42.390625 41.71875 45.5625 
Q 45.3125 48.734375 45.3125 54.390625 
Q 45.3125 60.0625 41.71875 63.234375 
Q 38.140625 66.40625 31.78125 66.40625 
Q 25.390625 66.40625 21.84375 63.234375 
Q 18.3125 60.0625 18.3125 54.390625 
z
" id="DejaVuSans-56"/>
      </defs>
      <g transform="translate(385.762273 322.182437)scale(0.1 -0.1)">
       <use xlink:href="#DejaVuSans-50"/>
       <use x="63.623047" xlink:href="#DejaVuSans-48"/>
       <use x="127.246094" xlink:href="#DejaVuSans-49"/>
       <use x="190.869141" xlink:href="#DejaVuSans-56"/>
      </g>
     </g>
    </g>
    <g id="text_7">
     <!-- ปี -->
     <defs>
      <path d="M 34.296875 50.203125 
Q 34.296875 51.984375 33.703125 52.640625 
Q 33.125 53.296875 31.8125 54.296875 
Q 30.5 55.296875 30.5 56.109375 
Q 30.5625 57.25 32.875 58.625 
Q 35.1875 60.015625 37.3125 60.015625 
Q 40.703125 59.765625 40.703125 48.796875 
L 40.703125 14.109375 
Q 40.703125 6.296875 36.328125 3.046875 
Q 31.953125 -0.203125 24.203125 -0.203125 
Q 19.390625 -0.203125 15.65625 1.203125 
Q 11.9375 2.609375 9.765625 5.875 
Q 7.59375 9.15625 7.59375 14.40625 
L 8.109375 31.8125 
Q 8.109375 32.78125 7.546875 33.34375 
Q 6.984375 33.90625 5.921875 34.4375 
Q 4.859375 34.984375 4.421875 35.359375 
Q 4 35.75 4 36.5 
Q 4.15625 37.859375 6.4375 38.96875 
Q 8.734375 40.09375 10.890625 40.09375 
Q 12.015625 40.09375 12.40625 39.890625 
Q 13.84375 39.28125 14.171875 37.453125 
Q 14.5 35.625 14.5 32.109375 
L 14.109375 13.59375 
Q 14.109375 8.84375 16.78125 6.421875 
Q 19.453125 4 24.296875 4 
Q 30.5 4.078125 32.390625 6.859375 
Q 34.296875 9.640625 34.296875 14.109375 
z
" id="JasmineUPC-3611"/>
      <path d="M -21 54.59375 
Q -17.921875 54.59375 -14.703125 54.390625 
Q -11.9375 54.21875 -11.9375 54.203125 
Q -11.9375 54.203125 -12.015625 54.203125 
L -12.015625 56 
Q -12.015625 56.90625 -12.359375 57.390625 
Q -12.703125 57.890625 -12.703125 58.203125 
Q -12.703125 60.015625 -8.796875 60.015625 
Q -6.890625 60.015625 -5.890625 59.734375 
Q -4.90625 59.46875 -4.90625 58.296875 
Q -4.90625 57.90625 -5.25 57.34375 
Q -5.59375 56.78125 -5.59375 56 
L -5.59375 52.296875 
Q -5.59375 52 -5.390625 50 
Q -5.390625 49.78125 -5.25 49.21875 
Q -5.109375 48.65625 -5.109375 48.390625 
Q -5.109375 47.953125 -5.59375 47.703125 
Q -6.203125 47.703125 -8.265625 48.296875 
Q -10.328125 48.90625 -13.234375 49.359375 
Q -16.15625 49.8125 -20.90625 49.8125 
Q -24.984375 49.8125 -27.6875 49.28125 
Q -30.390625 48.75 -32.640625 48.015625 
Q -34.90625 47.296875 -35.59375 47.296875 
Q -36.109375 47.296875 -36.59375 47.609375 
Q -37.109375 47.96875 -37.109375 49.09375 
Q -37.109375 50.3125 -36.34375 51.546875 
Q -35.578125 52.78125 -34.40625 53.203125 
Q -31.0625 54.59375 -21 54.59375 
z
" id="JasmineUPC-3637"/>
     </defs>
     <g transform="translate(231.519375 337.86525)scale(0.2 -0.2)">
      <use xlink:href="#JasmineUPC-3611"/>
      <use x="46.411133" xlink:href="#JasmineUPC-3637"/>
     </g>
    </g>
   </g>
   <g id="matplotlib.axis_2">
    <g id="ytick_1">
     <g id="line2d_7">
      <defs>
       <path d="M 0 0 
L -3.5 0 
" id="md72586c238" style="stroke:#000000;stroke-width:0.8;"/>
      </defs>
      <g>
       <use style="stroke:#000000;stroke-width:0.8;" x="57.6" xlink:href="#md72586c238" y="307.584"/>
      </g>
     </g>
     <g id="text_8">
      <!-- 0.0 -->
      <defs>
       <path d="M 10.6875 12.40625 
L 21 12.40625 
L 21 0 
L 10.6875 0 
z
" id="DejaVuSans-46"/>
      </defs>
      <g transform="translate(34.696875 311.383219)scale(0.1 -0.1)">
       <use xlink:href="#DejaVuSans-48"/>
       <use x="63.623047" xlink:href="#DejaVuSans-46"/>
       <use x="95.410156" xlink:href="#DejaVuSans-48"/>
      </g>
     </g>
    </g>
    <g id="ytick_2">
     <g id="line2d_8">
      <g>
       <use style="stroke:#000000;stroke-width:0.8;" x="57.6" xlink:href="#md72586c238" y="254.3616"/>
      </g>
     </g>
     <g id="text_9">
      <!-- 0.2 -->
      <g transform="translate(34.696875 258.160819)scale(0.1 -0.1)">
       <use xlink:href="#DejaVuSans-48"/>
       <use x="63.623047" xlink:href="#DejaVuSans-46"/>
       <use x="95.410156" xlink:href="#DejaVuSans-50"/>
      </g>
     </g>
    </g>
    <g id="ytick_3">
     <g id="line2d_9">
      <g>
       <use style="stroke:#000000;stroke-width:0.8;" x="57.6" xlink:href="#md72586c238" y="201.1392"/>
      </g>
     </g>
     <g id="text_10">
      <!-- 0.4 -->
      <g transform="translate(34.696875 204.938419)scale(0.1 -0.1)">
       <use xlink:href="#DejaVuSans-48"/>
       <use x="63.623047" xlink:href="#DejaVuSans-46"/>
       <use x="95.410156" xlink:href="#DejaVuSans-52"/>
      </g>
     </g>
    </g>
    <g id="ytick_4">
     <g id="line2d_10">
      <g>
       <use style="stroke:#000000;stroke-width:0.8;" x="57.6" xlink:href="#md72586c238" y="147.9168"/>
      </g>
     </g>
     <g id="text_11">
      <!-- 0.6 -->
      <g transform="translate(34.696875 151.716019)scale(0.1 -0.1)">
       <use xlink:href="#DejaVuSans-48"/>
       <use x="63.623047" xlink:href="#DejaVuSans-46"/>
       <use x="95.410156" xlink:href="#DejaVuSans-54"/>
      </g>
     </g>
    </g>
    <g id="ytick_5">
     <g id="line2d_11">
      <g>
       <use style="stroke:#000000;stroke-width:0.8;" x="57.6" xlink:href="#md72586c238" y="94.6944"/>
      </g>
     </g>
     <g id="text_12">
      <!-- 0.8 -->
      <g transform="translate(34.696875 98.493619)scale(0.1 -0.1)">
       <use xlink:href="#DejaVuSans-48"/>
       <use x="63.623047" xlink:href="#DejaVuSans-46"/>
       <use x="95.410156" xlink:href="#DejaVuSans-56"/>
      </g>
     </g>
    </g>
    <g id="ytick_6">
     <g id="line2d_12">
      <g>
       <use style="stroke:#000000;stroke-width:0.8;" x="57.6" xlink:href="#md72586c238" y="41.472"/>
      </g>
     </g>
     <g id="text_13">
      <!-- 1.0 -->
      <g transform="translate(34.696875 45.271219)scale(0.1 -0.1)">
       <use xlink:href="#DejaVuSans-49"/>
       <use x="63.623047" xlink:href="#DejaVuSans-46"/>
       <use x="95.410156" xlink:href="#DejaVuSans-48"/>
      </g>
     </g>
    </g>
    <g id="text_14">
     <!-- จำนวนชาวต่างชาติ (หน่วย10ล้าน) -->
     <defs>
      <path d="M 4.90625 22.09375 
Q 4.71875 22.484375 4.71875 22.796875 
Q 4.71875 24.3125 7.015625 26.0625 
Q 9.328125 27.8125 11.40625 27.8125 
Q 13.921875 27.8125 15.109375 24.78125 
Q 16.3125 21.75 17.21875 17.21875 
Q 17.5 15.875 18.015625 11.90625 
Q 18.53125 7.953125 19.3125 6.078125 
Q 20.09375 4.21875 21.90625 4.203125 
Q 24.6875 4.203125 26.640625 8.84375 
Q 28.59375 13.5 28.8125 20 
Q 28.8125 25.25 28.375 28.296875 
Q 27.9375 31.34375 25.96875 33.5 
Q 24 35.671875 19.796875 36.015625 
Q 15.15625 36.015625 12.359375 34.828125 
Q 9.578125 33.640625 7.453125 31.96875 
Q 5.328125 30.296875 4.59375 30.296875 
Q 3.6875 30.296875 3.203125 31.171875 
Q 2.71875 32.0625 2.71875 33.203125 
Q 2.71875 34.34375 3.203125 35.203125 
Q 4.671875 37.546875 8.796875 38.96875 
Q 12.921875 40.40625 17.796875 40.40625 
Q 19.40625 40.40625 20.1875 40.3125 
Q 26.3125 39.765625 29.609375 37.265625 
Q 32.90625 34.765625 33.96875 31.375 
Q 35.03125 27.984375 35.203125 23.390625 
Q 35.203125 17.09375 33.609375 11.640625 
Q 32.03125 6.203125 28.953125 2.90625 
Q 25.875 -0.390625 21.609375 -0.390625 
Q 13.75 -0.25 12.40625 8.59375 
Q 11.5 15.28125 11.109375 17.46875 
Q 10.71875 19.671875 9.40625 20.609375 
Q 8.71875 21.0625 7.015625 21.265625 
Q 5.328125 21.484375 4.90625 22.09375 
z
" id="JasmineUPC-3592"/>
      <path d="M -9.109375 48.1875 
Q -12.765625 48.1875 -14.828125 49.96875 
Q -16.890625 51.765625 -16.890625 54.203125 
Q -16.890625 56.5625 -14.90625 58.328125 
Q -12.921875 60.109375 -9.40625 60.109375 
Q -5.609375 60.109375 -3.5 58.328125 
Q -1.390625 56.546875 -1.390625 54.109375 
Q -1.390625 51.734375 -3.4375 49.953125 
Q -5.5 48.1875 -9.109375 48.1875 
z
M 19.1875 35.5 
Q 17.0625 36.5 14.703125 36.5 
Q 11.203125 36.5 9.109375 34.90625 
Q 7.625 33.765625 7.125 32.15625 
Q 6.625 30.5625 6.109375 30.109375 
Q 5.71875 29.71875 4.90625 29.71875 
Q 3.859375 29.8125 2.96875 30.5625 
Q 2.09375 31.328125 2.09375 32.59375 
Q 2.09375 35.453125 5.203125 37.59375 
Q 8.890625 40.3125 14.5 40.3125 
Q 17.4375 40.3125 20.0625 39.625 
Q 22.6875 38.9375 24.203125 37.890625 
Q 26.5625 36.296875 27.625 34.703125 
Q 28.6875 33.109375 28.9375 31.390625 
Q 29.203125 29.6875 29.203125 26.484375 
L 29.203125 7.203125 
Q 29.203125 5.59375 29.5625 4.953125 
Q 29.9375 4.328125 30.65625 3.546875 
Q 31.375 2.78125 31.390625 2.09375 
Q 31.390625 0.65625 30.3125 0.328125 
Q 29.25 0 26 0 
L 23.8125 0 
Q 22.09375 0 21.34375 0.390625 
Q 20.609375 0.78125 20.609375 2.09375 
Q 20.625 2.8125 21.359375 3.53125 
Q 22.09375 4.265625 22.4375 4.890625 
Q 22.796875 5.515625 22.796875 7.203125 
L 22.796875 26.484375 
Q 22.796875 30.21875 22.203125 32.21875 
Q 21.609375 34.234375 19.1875 35.5 
z
M -9.203125 57.109375 
Q -10.859375 57.109375 -11.828125 56.203125 
Q -12.796875 55.296875 -12.796875 54.109375 
Q -12.796875 52.984375 -11.84375 52.140625 
Q -10.890625 51.296875 -9.203125 51.296875 
Q -7.421875 51.296875 -6.453125 52.140625 
Q -5.5 53 -5.5 54.203125 
Q -5.5 55.34375 -6.453125 56.21875 
Q -7.40625 57.109375 -9.203125 57.109375 
z
" id="JasmineUPC-3635"/>
      <path d="M 6.8125 14.59375 
L 7.59375 32 
Q 7.59375 33.015625 7.046875 33.546875 
Q 6.515625 34.078125 5.421875 34.625 
Q 4.34375 35.1875 3.921875 35.5625 
Q 3.5 35.9375 3.5 36.6875 
Q 3.65625 38.0625 5.921875 39.1875 
Q 8.203125 40.3125 10.40625 40.3125 
Q 11.5 40.3125 11.890625 40.09375 
Q 13.328125 39.484375 13.65625 37.640625 
Q 13.984375 35.8125 13.984375 32.296875 
L 13.3125 11.59375 
Q 13.3125 4.203125 22 4.203125 
Q 26.984375 4.46875 30.046875 8.078125 
Q 33.109375 11.6875 33.109375 15.984375 
L 33.109375 32.78125 
Q 33.109375 34.515625 32.71875 35.15625 
Q 32.34375 35.796875 31.640625 36.484375 
Q 30.9375 37.1875 30.90625 37.890625 
Q 30.90625 39.234375 31.65625 39.609375 
Q 32.40625 39.984375 34.109375 39.984375 
L 36.3125 39.984375 
Q 39.546875 39.984375 40.625 39.671875 
Q 41.703125 39.375 41.703125 37.890625 
Q 41.671875 37.25 40.953125 36.453125 
Q 40.234375 35.671875 39.859375 35.03125 
Q 39.5 34.40625 39.5 32.78125 
L 39.5 16.890625 
Q 39.5 14.53125 38.40625 12.5 
Q 37.421875 10.765625 36.3125 10.015625 
Q 36.671875 10.015625 37.53125 9.546875 
Q 38.40625 9.078125 38.796875 8.59375 
Q 40.3125 7.078125 40.3125 4.8125 
Q 40.3125 3.203125 39.40625 1.8125 
Q 38.109375 -0.296875 35.109375 -0.296875 
Q 33.625 -0.296875 32.40625 0.296875 
Q 30.9375 1.046875 30.46875 2.0625 
Q 30 3.078125 30 3.59375 
Q 29.8125 3.4375 28.40625 2.4375 
Q 27 1.4375 24.453125 0.609375 
Q 21.921875 -0.203125 18.5 -0.203125 
Q 12.984375 0.515625 9.890625 3.765625 
Q 6.8125 7.03125 6.8125 14.59375 
z
" id="JasmineUPC-3609"/>
      <path d="M 9.296875 11.109375 
Q 10.203125 10.59375 10.296875 8.6875 
Q 10.40625 6.78125 11.015625 6 
Q 12.875 3.484375 17.5 3.484375 
Q 21.390625 3.484375 24.203125 5.390625 
Q 26.90625 7.25 28.359375 11.5625 
Q 29.8125 15.890625 29.8125 21 
Q 29.8125 28 27.203125 32 
Q 25.765625 34.25 23.140625 35.375 
Q 20.515625 36.5 17.5 36.5 
Q 13.890625 36.5 11.0625 35.0625 
Q 8.25 33.625 7.5 31.203125 
Q 7.203125 30 6.109375 30 
Q 5 30 3.953125 31 
Q 2.90625 32 2.90625 33.296875 
Q 2.90625 34.015625 3.109375 34.296875 
Q 4.390625 37.25 8.3125 38.71875 
Q 12.25 40.203125 17.3125 40.203125 
Q 23.09375 40.203125 27.125 38.4375 
Q 31.171875 36.671875 33.4375 32.65625 
Q 35.71875 28.640625 35.890625 22.1875 
Q 35.890625 15.671875 34.34375 10.875 
Q 32.8125 6.078125 28.59375 2.90625 
Q 24.125 -0.390625 17.09375 -0.390625 
Q 13.703125 -0.390625 11.015625 0.484375 
Q 4.296875 2.515625 4.296875 7.90625 
Q 4.6875 9.546875 5.703125 10.46875 
Q 6.734375 11.40625 8.015625 11.40625 
Q 8.71875 11.40625 9.296875 11.109375 
z
" id="JasmineUPC-3623"/>
      <path d="M 26.484375 30.90625 
Q 26.046875 31.859375 25.078125 32.359375 
Q 24.125 32.859375 23.859375 33.140625 
Q 23.609375 33.421875 23.609375 34.796875 
Q 23.65625 36.203125 25.078125 37.046875 
Q 26.515625 37.890625 27 38.890625 
Q 27.484375 40.046875 27.546875 41.546875 
Q 27.59375 43.046875 27.90625 43.40625 
Q 28.765625 44.40625 31.90625 44.40625 
Q 35.640625 44.40625 35.796875 43 
Q 35.796875 39.625 32.296875 37.59375 
Q 31.515625 37.140625 30.25 36.640625 
Q 28.984375 36.140625 28.640625 35.90625 
Q 28.296875 35.671875 28.296875 35.015625 
Q 28.296875 34.46875 29.5 33.890625 
Q 30.71875 33.328125 31.3125 32.953125 
Q 31.90625 32.59375 32.59375 31.390625 
Q 33.59375 29.390625 33.59375 26.203125 
L 33.59375 11.296875 
Q 33.59375 5.171875 30.265625 2.515625 
Q 26.953125 -0.125 20.515625 -0.203125 
Q 6.8125 -0.203125 6.8125 11.296875 
L 6.8125 19 
Q 6.8125 21.953125 8.5 24 
Q 9.46875 25.078125 11.5625 26.765625 
Q 13.65625 28.46875 14.625 29.734375 
Q 15.609375 31 15.609375 32.78125 
Q 15.53125 34.0625 14.53125 34.828125 
Q 13.546875 35.59375 12.3125 35.59375 
Q 10.640625 35.59375 9.796875 34.203125 
Q 9.375 33.453125 9.015625 31.890625 
Q 8.671875 30.34375 8.15625 29.578125 
Q 7.640625 28.8125 6.296875 28.71875 
Q 4.859375 28.78125 3.921875 30.015625 
Q 3 31.25 3 32.90625 
Q 3 34.328125 3.5 35.203125 
Q 6.109375 39.8125 12.3125 40.09375 
Q 14.9375 40.09375 17.234375 39.046875 
Q 19.53125 38.015625 20.859375 36.34375 
Q 22.1875 34.6875 22.1875 32.90625 
Q 22.171875 31.171875 21.171875 29.84375 
Q 20.1875 28.515625 17.875 26.578125 
Q 15.578125 24.640625 14.984375 24 
Q 13.96875 22.875 13.640625 22.0625 
Q 13.3125 21.265625 13.3125 19.09375 
L 13.3125 11.890625 
Q 13.3125 7.625 15.046875 5.8125 
Q 16.78125 4 20.515625 4 
Q 24.609375 4.125 25.90625 6.0625 
Q 27.203125 8.015625 27.203125 11.890625 
L 27.203125 26.90625 
Q 27.203125 29.203125 26.484375 30.90625 
z
" id="JasmineUPC-3594"/>
      <path d="M 18.609375 35.5 
Q 16.484375 36.5 14.109375 36.5 
Q 10.59375 36.5 8.5 34.90625 
Q 7.375 34.0625 7.015625 33.375 
Q 6.671875 32.6875 6.34375 31.625 
Q 6.03125 30.5625 5.5 30.109375 
Q 5.109375 29.71875 4.296875 29.71875 
Q 3.25 29.8125 2.359375 30.5625 
Q 1.484375 31.328125 1.484375 32.59375 
Q 1.484375 35.453125 4.59375 37.59375 
Q 8.25 40.3125 13.890625 40.3125 
Q 20.015625 40.3125 23.390625 37.890625 
Q 26.734375 35.625 27.65625 33.25 
Q 28.59375 30.890625 28.59375 26.484375 
L 28.59375 7.203125 
Q 28.59375 5.59375 28.953125 4.953125 
Q 29.328125 4.328125 30.046875 3.578125 
Q 30.765625 2.828125 30.8125 2.09375 
Q 30.8125 0.65625 29.734375 0.328125 
Q 28.65625 0 25.390625 0 
L 23.1875 0 
Q 21.484375 0 20.734375 0.390625 
Q 20 0.78125 20 2.09375 
Q 20.015625 2.8125 20.75 3.53125 
Q 21.484375 4.265625 21.828125 4.890625 
Q 22.1875 5.515625 22.1875 7.203125 
L 22.1875 26.484375 
Q 22.1875 30.21875 21.59375 32.21875 
Q 21 34.234375 18.609375 35.5 
z
" id="JasmineUPC-3634"/>
      <path d="M 36.890625 36.796875 
Q 38.875 34.71875 39.484375 32.375 
Q 40.09375 30.03125 40.09375 26.296875 
L 40.09375 7.203125 
Q 40.09375 5.640625 40.46875 4.984375 
Q 40.84375 4.328125 41.5625 3.546875 
Q 42.28125 2.78125 42.3125 2.09375 
Q 42.3125 0.65625 41.234375 0.328125 
Q 40.15625 0 36.890625 0 
L 34.6875 0 
Q 32.984375 0 32.234375 0.390625 
Q 31.5 0.78125 31.5 2.09375 
Q 31.515625 2.8125 32.25 3.53125 
Q 32.984375 4.265625 33.328125 4.890625 
Q 33.6875 5.515625 33.6875 7.203125 
L 33.6875 26.296875 
Q 33.6875 35.203125 28.8125 35.796875 
Q 28.375 35.796875 26.203125 34.28125 
Q 24.046875 32.78125 23.609375 32.78125 
Q 23.140625 32.859375 21.09375 34.328125 
Q 19.0625 35.796875 18.40625 35.796875 
Q 16.0625 35.640625 14.015625 32.75 
Q 11.96875 29.859375 11.5 25.703125 
Q 11.40625 24.90625 11.40625 23.09375 
Q 11.40625 18.453125 12.421875 12.84375 
Q 13.453125 7.234375 14.5 5.6875 
Q 15.046875 6.546875 16.1875 8.640625 
Q 17.328125 10.75 18.609375 13.59375 
Q 21.1875 19.453125 21.1875 23.390625 
Q 21.015625 24.078125 20.53125 24.4375 
Q 20.046875 24.8125 19.265625 25.078125 
Q 18.5 25.359375 18.1875 25.546875 
Q 17.890625 25.734375 17.890625 26.203125 
Q 17.890625 27.546875 20.078125 28.625 
Q 22.265625 29.71875 24.390625 29.71875 
Q 24.875 29.71875 25.8125 29.5 
Q 27.8125 28.875 27.8125 25.296875 
Q 27.8125 24.140625 27.390625 21.609375 
Q 26.515625 17.09375 24.78125 13.4375 
Q 23.046875 9.796875 19.609375 3.59375 
Q 18.21875 1.296875 17.078125 0.640625 
Q 15.9375 0 13.5 0 
Q 11.703125 0 10.859375 0.359375 
Q 10.015625 0.734375 9.015625 2.09375 
Q 7.640625 4.03125 6.421875 9.890625 
Q 5.203125 15.75 5.203125 21.515625 
Q 5.203125 28.8125 7.203125 32.90625 
Q 9.109375 36.890625 12.15625 38.640625 
Q 15.21875 40.40625 17.609375 40.40625 
Q 18.703125 40.375 19.953125 39.796875 
Q 21.21875 39.234375 22.4375 38.46875 
Q 23.65625 37.703125 23.8125 37.703125 
Q 23.8125 37.703125 26.203125 39.046875 
Q 28.59375 40.40625 29.8125 40.40625 
Q 33.546875 40.40625 36.890625 36.796875 
z
" id="JasmineUPC-3605"/>
      <path d="M -9.015625 60.59375 
Q -5.90625 60.59375 -5.90625 58.90625 
L -5.90625 49.390625 
Q -5.90625 48.40625 -6.59375 48.046875 
Q -7.296875 47.703125 -9.109375 47.703125 
Q -12.3125 47.703125 -12.3125 49.390625 
L -12.3125 58.90625 
Q -12.3125 60.59375 -9.015625 60.59375 
z
" id="JasmineUPC-3656"/>
      <path d="M 9.296875 24.1875 
Q 9.96875 20.875 12.59375 14.640625 
Q 15.21875 8.421875 16.703125 6.203125 
Q 18.046875 4.203125 20 4.203125 
Q 21.65625 4.203125 23.1875 5.546875 
Q 24.734375 6.90625 25.390625 8.59375 
Q 27.296875 13.203125 27.296875 19.5 
Q 27.296875 25.65625 25.578125 30.171875 
Q 23.859375 34.6875 21.09375 34.6875 
Q 20.484375 34.6875 20.109375 34.40625 
Q 19.734375 34.125 19.109375 33.453125 
Q 18.484375 32.78125 18.078125 32.484375 
Q 17.671875 32.203125 17.09375 32.203125 
Q 15.21875 32.34375 15.21875 34.90625 
Q 15.21875 36.5 16.21875 37.921875 
Q 17.21875 39.359375 19.09375 39.890625 
Q 20.796875 40.3125 21.515625 40.3125 
Q 24.640625 40.3125 27.453125 38.125 
Q 30.28125 35.9375 32.078125 31.890625 
Q 33.890625 27.859375 34.109375 22.609375 
Q 34.109375 22.1875 34.15625 21.375 
Q 34.203125 20.578125 34.203125 20.1875 
Q 34.203125 8.765625 29 3.09375 
Q 27.46875 1.421875 24.796875 0.515625 
Q 22.140625 -0.390625 19.3125 -0.390625 
Q 14.203125 -0.390625 12.203125 2.203125 
Q 11.15625 3.640625 9.5625 7.125 
Q 7.984375 10.625 6.328125 14.890625 
Q 4.6875 19.171875 3.90625 21.515625 
Q 3.109375 23.640625 3.109375 24.296875 
Q 3.109375 25.59375 4.5 26.609375 
Q 6.421875 28.09375 7.5 28.09375 
Q 8.1875 28.09375 8.515625 27.53125 
Q 8.859375 26.984375 9.015625 26.03125 
Q 9.1875 25.078125 9.296875 24.1875 
z
" id="JasmineUPC-3591"/>
      <path d="M -6.5 47.609375 
Q -6.734375 47.609375 -8.671875 48.234375 
Q -10.625 48.859375 -13.734375 49.328125 
Q -16.84375 49.8125 -21.703125 49.8125 
Q -25.78125 49.8125 -28.484375 49.28125 
Q -31.203125 48.75 -33.453125 48.015625 
Q -35.71875 47.296875 -36.40625 47.296875 
Q -36.921875 47.296875 -37.40625 47.609375 
Q -37.890625 47.96875 -37.890625 49 
Q -37.890625 50.140625 -37.09375 51.421875 
Q -36.3125 52.703125 -35.203125 53.296875 
Q -32.953125 54.5 -22.296875 54.5 
Q -12.328125 54.5 -8.5 53.484375 
Q -7.34375 53.296875 -6.421875 51.859375 
Q -5.5 50.421875 -5.5 49.09375 
Q -5.5 47.90625 -6.5 47.609375 
z
" id="JasmineUPC-3636"/>
      <path id="JasmineUPC-32"/>
      <path d="M 21.296875 -7.59375 
Q 21.296875 -8.59375 20.609375 -8.59375 
Q 19.4375 -8.59375 17.25 -6.671875 
Q 15.0625 -4.765625 12.84375 -1.078125 
Q 10.640625 2.59375 9.15625 7.9375 
Q 7.6875 13.28125 7.6875 20 
Q 7.6875 26.59375 9.265625 32.03125 
Q 10.84375 37.46875 13.171875 41.171875 
Q 15.5 44.890625 17.640625 46.796875 
Q 19.796875 48.703125 20.90625 48.703125 
Q 21.296875 48.703125 21.296875 47.609375 
Q 21.125 47.171875 19.703125 44.96875 
Q 18.28125 42.78125 17 39.765625 
Q 15.71875 36.75 14.796875 31.78125 
Q 13.890625 26.8125 13.890625 20 
Q 14.046875 12.703125 15.03125 7.65625 
Q 16.015625 2.609375 17.203125 -0.03125 
Q 18.390625 -2.6875 19.78125 -4.8125 
Q 21.171875 -6.953125 21.296875 -7.59375 
z
" id="JasmineUPC-40"/>
      <path d="M 19.3125 28.90625 
Q 22.015625 31.078125 24.171875 31.78125 
Q 26.34375 32.5 27.203125 32.5 
Q 26.46875 32.5 24.53125 33.703125 
Q 22.609375 34.90625 22.609375 36.796875 
Q 23.296875 40.40625 31.59375 40.40625 
Q 35.109375 40.40625 37.75 39.46875 
Q 40.40625 38.546875 40.609375 36.296875 
Q 40.609375 34.078125 38.3125 33.09375 
Q 36.015625 32.109375 34.796875 32.109375 
Q 35.25 32.109375 36.9375 30.9375 
Q 38.625 29.78125 39.5 28.203125 
Q 40.890625 25.203125 40.890625 19.3125 
L 40.890625 7.203125 
Q 40.890625 5.59375 41.25 4.953125 
Q 41.625 4.328125 42.34375 3.546875 
Q 43.0625 2.78125 43.09375 2.09375 
Q 43.09375 0.65625 42.015625 0.328125 
Q 40.9375 0 37.703125 0 
L 35.5 0 
Q 33.796875 0 33.046875 0.390625 
Q 32.296875 0.78125 32.296875 2.09375 
Q 32.328125 2.8125 33.0625 3.53125 
Q 33.796875 4.265625 34.140625 4.890625 
Q 34.5 5.515625 34.5 7.203125 
L 34.5 19.3125 
Q 34.5 23.390625 33.625 25.609375 
Q 32.765625 27.828125 29.8125 28.296875 
Q 23.484375 28.296875 19.09375 22.296875 
Q 17 19.359375 15.65625 15.65625 
Q 14.3125 11.96875 14.3125 10.015625 
L 14.3125 7.203125 
Q 14.3125 5.671875 14.703125 4.96875 
Q 15.09375 4.265625 15.828125 3.515625 
Q 16.578125 2.765625 16.609375 2.09375 
Q 16.609375 0.65625 15.53125 0.328125 
Q 14.453125 0 11.203125 0 
L 9.109375 0 
Q 7.375 0 6.59375 0.390625 
Q 5.8125 0.78125 5.8125 2.09375 
Q 5.890625 2.8125 6.5625 3.53125 
Q 7.234375 4.265625 7.5625 4.96875 
Q 7.90625 5.671875 7.90625 7.203125 
L 7.90625 32 
Q 7.90625 33.015625 7.375 33.546875 
Q 6.84375 34.078125 5.75 34.625 
Q 4.671875 35.1875 4.234375 35.5625 
Q 3.8125 35.9375 3.8125 36.6875 
Q 3.953125 38.0625 6.234375 39.1875 
Q 8.515625 40.3125 10.6875 40.3125 
Q 11.796875 40.3125 12.203125 40.09375 
Q 13.65625 39.484375 13.984375 37.640625 
Q 14.3125 35.8125 14.3125 32.296875 
L 14.3125 26.703125 
L 13.796875 21.515625 
Q 14.203125 22.53125 15.5625 24.71875 
Q 16.921875 26.90625 19.3125 28.90625 
z
" id="JasmineUPC-3627"/>
      <path d="M 32.59375 30.390625 
Q 32.59375 32.171875 31.984375 32.859375 
Q 31.375 33.5625 30.09375 34.53125 
Q 28.8125 35.5 28.8125 36.296875 
Q 28.890625 37.421875 31.171875 38.8125 
Q 33.46875 40.203125 35.59375 40.203125 
Q 38.984375 39.96875 38.984375 29 
L 38.984375 15.203125 
Q 38.984375 -0.296875 21.40625 -0.296875 
Q 16.875 -0.296875 13.203125 1.234375 
Q 9.546875 2.78125 7.46875 5.71875 
Q 5.390625 8.671875 5.390625 12.59375 
Q 5.59375 16.328125 7.59375 18.53125 
Q 9.59375 20.734375 11.75 21.5625 
Q 13.921875 22.40625 14.703125 22.40625 
Q 12.796875 22.40625 9.765625 23.5 
Q 6.734375 24.609375 5.59375 27.8125 
Q 5.109375 29.328125 5.109375 30.59375 
Q 5.109375 32.84375 6.296875 34.90625 
Q 7.5 36.984375 9.5 38.3125 
Q 12.703125 40.3125 16.796875 40.3125 
Q 20.84375 40.3125 22.515625 38.203125 
Q 23.390625 37.015625 23.390625 35.59375 
Q 23.390625 33.40625 21.609375 33.109375 
Q 20.6875 33.109375 20.15625 33.390625 
Q 19.625 33.671875 18.78125 34.390625 
Q 17.953125 35.125 17.34375 35.453125 
Q 16.75 35.796875 15.890625 35.796875 
Q 12.03125 35.671875 11.5 31.203125 
Q 11.5 28.421875 13.765625 26.75 
Q 16.046875 25.078125 18.890625 25 
Q 21.40625 25 24.046875 26 
Q 26.6875 27 27 27 
Q 27.421875 27 27.71875 26.609375 
Q 28.203125 25.75 28.203125 25.203125 
Q 28.203125 24.6875 27.90625 24.1875 
Q 27.6875 23.796875 24.609375 22.8125 
Q 21.53125 21.828125 18.953125 20.703125 
Q 16.390625 19.578125 14.265625 17.375 
Q 12.140625 15.1875 12.109375 12.015625 
Q 12.109375 3.515625 21.296875 3.390625 
Q 32.59375 3.390625 32.59375 15.984375 
z
" id="JasmineUPC-3618"/>
      <path d="M 13.703125 1.90625 
Q 13.703125 3.90625 15.3125 3.90625 
L 16.796875 3.90625 
Q 18.5 3.90625 19.515625 4.90625 
Q 20.09375 5.5 20.09375 7.78125 
L 20.09375 33.6875 
Q 20.09375 35.40625 19.609375 36.015625 
Q 19.09375 36.5 17.890625 36.5 
L 14.5 36.5 
Q 12.984375 36.5 12.796875 36.6875 
Q 12.5 36.984375 12.5 37.703125 
Q 12.5 38.625 12.796875 39.109375 
Q 12.875 39.3125 15.65625 39.6875 
Q 18.4375 40.0625 20.1875 41.09375 
Q 21.6875 41.96875 22.59375 42.984375 
Q 23.515625 44 23.796875 44.203125 
Q 24.09375 44.40625 25.390625 44.40625 
Q 27.203125 44.40625 27.203125 42.609375 
L 27.203125 7.78125 
Q 27.203125 5.78125 27.90625 5 
Q 28.65625 3.90625 30 3.90625 
L 31.390625 3.90625 
Q 33.6875 3.90625 33.6875 1.90625 
Q 33.6875 0.640625 33.140625 0.3125 
Q 32.59375 0 31.5 0 
L 15.5 0 
Q 14.59375 0 14.171875 0.34375 
Q 13.765625 0.6875 13.703125 1.90625 
z
" id="JasmineUPC-49"/>
      <path d="M 41.703125 22.1875 
Q 41.703125 16.453125 39.59375 11.28125 
Q 37.484375 6.125 33.234375 2.953125 
Q 29 -0.203125 23.09375 -0.203125 
Q 17.140625 -0.203125 12.859375 2.96875 
Q 8.59375 6.15625 6.484375 11.296875 
Q 4.390625 16.453125 4.390625 22.1875 
Q 4.390625 27.953125 6.5 33.09375 
Q 8.625 38.25 12.875 41.421875 
Q 17.140625 44.609375 23.09375 44.609375 
Q 29.046875 44.578125 33.265625 41.390625 
Q 37.5 38.203125 39.59375 33.0625 
Q 41.703125 27.9375 41.703125 22.1875 
z
M 23.09375 40.203125 
Q 19.34375 40.203125 16.9375 37.515625 
Q 14.53125 34.84375 13.46875 30.71875 
Q 12.40625 26.59375 12.40625 22.1875 
Q 12.40625 17.828125 13.46875 13.703125 
Q 14.53125 9.578125 16.9375 6.890625 
Q 19.34375 4.203125 23.09375 4.203125 
Q 26.90625 4.203125 29.359375 6.875 
Q 31.8125 9.546875 32.90625 13.6875 
Q 34.015625 17.828125 34.015625 22.1875 
Q 34.015625 29.328125 31.34375 34.765625 
Q 28.6875 40.203125 23.09375 40.203125 
z
" id="JasmineUPC-48"/>
      <path d="M 31.109375 27.8125 
Q 31.109375 30.953125 29.15625 33.671875 
Q 27.21875 36.40625 21.1875 36.40625 
Q 17.5 36.375 15.609375 35.59375 
Q 13.71875 34.8125 12.796875 33.40625 
Q 11.890625 32 11.390625 31.140625 
Q 10.890625 30.296875 10.015625 30 
Q 8.984375 29.8125 8.796875 29.8125 
Q 7.5 29.8125 6.796875 30.625 
Q 6.109375 31.453125 6.109375 32.59375 
Q 6.109375 33.078125 6.5 34.109375 
Q 7.984375 37.1875 12.203125 38.6875 
Q 16.4375 40.203125 21.796875 40.203125 
Q 29.46875 40.140625 33.578125 36.6875 
Q 37.703125 33.234375 37.703125 27.203125 
L 37.703125 9.203125 
Q 37.703125 6.296875 38.109375 4.8125 
Q 38.234375 4.375 38.859375 3.96875 
Q 39.5 3.5625 39.796875 3.21875 
Q 40.09375 2.875 40.09375 1.90625 
Q 40.09375 0.75 39.015625 0.375 
Q 37.9375 0 35.796875 0 
Q 32.765625 0 32.03125 0.90625 
Q 31.296875 1.8125 31.296875 5.296875 
L 31.296875 23.796875 
Q 28.828125 23.796875 24.046875 23.0625 
Q 19.28125 22.34375 15.609375 20.09375 
Q 13.5 18.84375 12.34375 16.625 
Q 11.203125 14.421875 11.203125 12.015625 
Q 11.203125 9.109375 12.703125 6.984375 
Q 14.203125 4.859375 16.796875 4.71875 
Q 18.109375 4.71875 19.25 5.609375 
Q 20.390625 6.5 21.1875 6.59375 
Q 24.09375 6.59375 24.09375 3.71875 
Q 24.03125 1.765625 21.984375 0.78125 
Q 19.953125 -0.203125 17 -0.203125 
Q 11.71875 -0.203125 8.109375 3.015625 
Q 4.5 6.25 4.5 11.890625 
Q 4.5 13.3125 4.59375 13.984375 
Q 5.609375 22.1875 17.609375 25.484375 
Q 21.296875 26.53125 25.6875 27.171875 
Q 30.078125 27.8125 31.109375 27.8125 
z
" id="JasmineUPC-3621"/>
      <path d="M -11.5 51.484375 
Q -11.5 51 -9.6875 51 
Q -6.84375 51 -5.40625 51.796875 
Q -3.984375 52.609375 -3.34375 53.375 
Q -2.71875 54.15625 -2.515625 54.796875 
Q -2.328125 55.4375 -2.09375 56.109375 
Q -1.859375 56.59375 0.390625 56.59375 
Q 3.21875 56.59375 3.5 55.90625 
Q 3.5 53.59375 0.484375 51.09375 
Q -2.515625 48.609375 -6.390625 48 
Q -8.671875 47.703125 -11.59375 47.703125 
Q -18.3125 47.703125 -18.3125 49.390625 
Q -18.265625 49.78125 -17.484375 50.796875 
Q -16.703125 51.828125 -16.703125 53.09375 
Q -16.703125 53.609375 -16.984375 53.859375 
Q -17.265625 54.109375 -17.859375 54.296875 
Q -18.453125 54.5 -18.796875 54.6875 
Q -19.140625 54.890625 -19.1875 55.203125 
Q -19.1875 56.34375 -17.265625 57.0625 
Q -15.359375 57.78125 -13.3125 57.78125 
Q -11.421875 57.78125 -10.796875 57.296875 
Q -9.90625 56.671875 -9.90625 55.296875 
Q -9.90625 53.15625 -11.5 51.484375 
z
" id="JasmineUPC-3657"/>
      <path d="M 13.3125 20 
Q 13.3125 26.921875 12.40625 31.859375 
Q 11.5 36.8125 10.265625 39.671875 
Q 9.03125 42.546875 7.546875 44.859375 
Q 6.078125 47.1875 5.90625 47.609375 
Q 5.90625 48.703125 6.296875 48.703125 
Q 7.40625 48.703125 9.609375 46.75 
Q 11.8125 44.796875 14.078125 41.125 
Q 16.359375 37.46875 17.9375 32.09375 
Q 19.515625 26.734375 19.515625 20 
Q 19.515625 13.359375 18 7.890625 
Q 16.5 2.421875 14.296875 -1.1875 
Q 12.09375 -4.8125 9.953125 -6.703125 
Q 7.8125 -8.59375 6.59375 -8.59375 
Q 5.90625 -8.59375 5.90625 -7.59375 
Q 6 -7.0625 7.375 -4.9375 
Q 8.765625 -2.828125 10 -0.046875 
Q 11.234375 2.734375 12.21875 7.703125 
Q 13.203125 12.671875 13.3125 20 
z
" id="JasmineUPC-41"/>
     </defs>
     <g transform="translate(28.25625 275.2655)rotate(-90)scale(0.2 -0.2)">
      <use xlink:href="#JasmineUPC-3592"/>
      <use x="39.208984" xlink:href="#JasmineUPC-3635"/>
      <use x="73.217773" xlink:href="#JasmineUPC-3609"/>
      <use x="118.310547" xlink:href="#JasmineUPC-3623"/>
      <use x="157.910156" xlink:href="#JasmineUPC-3609"/>
      <use x="203.00293" xlink:href="#JasmineUPC-3594"/>
      <use x="241.308594" xlink:href="#JasmineUPC-3634"/>
      <use x="274.804688" xlink:href="#JasmineUPC-3623"/>
      <use x="314.404297" xlink:href="#JasmineUPC-3605"/>
      <use x="359.692383" xlink:href="#JasmineUPC-3656"/>
      <use x="359.692383" xlink:href="#JasmineUPC-3634"/>
      <use x="393.188477" xlink:href="#JasmineUPC-3591"/>
      <use x="430.688477" xlink:href="#JasmineUPC-3594"/>
      <use x="468.994141" xlink:href="#JasmineUPC-3634"/>
      <use x="502.490234" xlink:href="#JasmineUPC-3605"/>
      <use x="547.77832" xlink:href="#JasmineUPC-3636"/>
      <use x="547.77832" xlink:href="#JasmineUPC-32"/>
      <use x="569.970703" xlink:href="#JasmineUPC-40"/>
      <use x="594.873047" xlink:href="#JasmineUPC-3627"/>
      <use x="641.064453" xlink:href="#JasmineUPC-3609"/>
      <use x="686.157227" xlink:href="#JasmineUPC-3656"/>
      <use x="686.157227" xlink:href="#JasmineUPC-3623"/>
      <use x="725.756836" xlink:href="#JasmineUPC-3618"/>
      <use x="769.555664" xlink:href="#JasmineUPC-49"/>
      <use x="815.258789" xlink:href="#JasmineUPC-48"/>
      <use x="860.961914" xlink:href="#JasmineUPC-3621"/>
      <use x="903.857422" xlink:href="#JasmineUPC-3657"/>
      <use x="903.857422" xlink:href="#JasmineUPC-3634"/>
      <use x="937.353516" xlink:href="#JasmineUPC-3609"/>
      <use x="982.446289" xlink:href="#JasmineUPC-41"/>
     </g>
    </g>
    <g id="text_15">
     <!-- 1e7 -->
     <defs>
      <path d="M 56.203125 29.59375 
L 56.203125 25.203125 
L 14.890625 25.203125 
Q 15.484375 15.921875 20.484375 11.0625 
Q 25.484375 6.203125 34.421875 6.203125 
Q 39.59375 6.203125 44.453125 7.46875 
Q 49.3125 8.734375 54.109375 11.28125 
L 54.109375 2.78125 
Q 49.265625 0.734375 44.1875 -0.34375 
Q 39.109375 -1.421875 33.890625 -1.421875 
Q 20.796875 -1.421875 13.15625 6.1875 
Q 5.515625 13.8125 5.515625 26.8125 
Q 5.515625 40.234375 12.765625 48.109375 
Q 20.015625 56 32.328125 56 
Q 43.359375 56 49.78125 48.890625 
Q 56.203125 41.796875 56.203125 29.59375 
z
M 47.21875 32.234375 
Q 47.125 39.59375 43.09375 43.984375 
Q 39.0625 48.390625 32.421875 48.390625 
Q 24.90625 48.390625 20.390625 44.140625 
Q 15.875 39.890625 15.1875 32.171875 
z
" id="DejaVuSans-101"/>
     </defs>
     <g transform="translate(57.6 38.472)scale(0.1 -0.1)">
      <use xlink:href="#DejaVuSans-49"/>
      <use x="63.623047" xlink:href="#DejaVuSans-101"/>
      <use x="125.146484" xlink:href="#DejaVuSans-55"/>
     </g>
    </g>
   </g>
   <g id="patch_3">
    <path d="M 57.6 307.584 
L 57.6 41.472 
" style="fill:none;stroke:#000000;stroke-linecap:square;stroke-linejoin:miter;stroke-width:0.8;"/>
   </g>
   <g id="patch_4">
    <path d="M 414.72 307.584 
L 414.72 41.472 
" style="fill:none;stroke:#000000;stroke-linecap:square;stroke-linejoin:miter;stroke-width:0.8;"/>
   </g>
   <g id="patch_5">
    <path d="M 57.6 307.584 
L 414.72 307.584 
" style="fill:none;stroke:#000000;stroke-linecap:square;stroke-linejoin:miter;stroke-width:0.8;"/>
   </g>
   <g id="patch_6">
    <path d="M 57.6 41.472 
L 414.72 41.472 
" style="fill:none;stroke:#000000;stroke-linecap:square;stroke-linejoin:miter;stroke-width:0.8;"/>
   </g>
   <g id="text_16">
    <!-- eastasia -->
    <defs>
     <path d="M 34.28125 27.484375 
Q 23.390625 27.484375 19.1875 25 
Q 14.984375 22.515625 14.984375 16.5 
Q 14.984375 11.71875 18.140625 8.90625 
Q 21.296875 6.109375 26.703125 6.109375 
Q 34.1875 6.109375 38.703125 11.40625 
Q 43.21875 16.703125 43.21875 25.484375 
L 43.21875 27.484375 
z
M 52.203125 31.203125 
L 52.203125 0 
L 43.21875 0 
L 43.21875 8.296875 
Q 40.140625 3.328125 35.546875 0.953125 
Q 30.953125 -1.421875 24.3125 -1.421875 
Q 15.921875 -1.421875 10.953125 3.296875 
Q 6 8.015625 6 15.921875 
Q 6 25.140625 12.171875 29.828125 
Q 18.359375 34.515625 30.609375 34.515625 
L 43.21875 34.515625 
L 43.21875 35.40625 
Q 43.21875 41.609375 39.140625 45 
Q 35.0625 48.390625 27.6875 48.390625 
Q 23 48.390625 18.546875 47.265625 
Q 14.109375 46.140625 10.015625 43.890625 
L 10.015625 52.203125 
Q 14.9375 54.109375 19.578125 55.046875 
Q 24.21875 56 28.609375 56 
Q 40.484375 56 46.34375 49.84375 
Q 52.203125 43.703125 52.203125 31.203125 
z
" id="DejaVuSans-97"/>
     <path d="M 44.28125 53.078125 
L 44.28125 44.578125 
Q 40.484375 46.53125 36.375 47.5 
Q 32.28125 48.484375 27.875 48.484375 
Q 21.1875 48.484375 17.84375 46.4375 
Q 14.5 44.390625 14.5 40.28125 
Q 14.5 37.15625 16.890625 35.375 
Q 19.28125 33.59375 26.515625 31.984375 
L 29.59375 31.296875 
Q 39.15625 29.25 43.1875 25.515625 
Q 47.21875 21.78125 47.21875 15.09375 
Q 47.21875 7.46875 41.1875 3.015625 
Q 35.15625 -1.421875 24.609375 -1.421875 
Q 20.21875 -1.421875 15.453125 -0.5625 
Q 10.6875 0.296875 5.421875 2 
L 5.421875 11.28125 
Q 10.40625 8.6875 15.234375 7.390625 
Q 20.0625 6.109375 24.8125 6.109375 
Q 31.15625 6.109375 34.5625 8.28125 
Q 37.984375 10.453125 37.984375 14.40625 
Q 37.984375 18.0625 35.515625 20.015625 
Q 33.0625 21.96875 24.703125 23.78125 
L 21.578125 24.515625 
Q 13.234375 26.265625 9.515625 29.90625 
Q 5.8125 33.546875 5.8125 39.890625 
Q 5.8125 47.609375 11.28125 51.796875 
Q 16.75 56 26.8125 56 
Q 31.78125 56 36.171875 55.265625 
Q 40.578125 54.546875 44.28125 53.078125 
z
" id="DejaVuSans-115"/>
     <path d="M 18.3125 70.21875 
L 18.3125 54.6875 
L 36.8125 54.6875 
L 36.8125 47.703125 
L 18.3125 47.703125 
L 18.3125 18.015625 
Q 18.3125 11.328125 20.140625 9.421875 
Q 21.96875 7.515625 27.59375 7.515625 
L 36.8125 7.515625 
L 36.8125 0 
L 27.59375 0 
Q 17.1875 0 13.234375 3.875 
Q 9.28125 7.765625 9.28125 18.015625 
L 9.28125 47.703125 
L 2.6875 47.703125 
L 2.6875 54.6875 
L 9.28125 54.6875 
L 9.28125 70.21875 
z
" id="DejaVuSans-116"/>
     <path d="M 9.421875 54.6875 
L 18.40625 54.6875 
L 18.40625 0 
L 9.421875 0 
z
M 9.421875 75.984375 
L 18.40625 75.984375 
L 18.40625 64.59375 
L 9.421875 64.59375 
z
" id="DejaVuSans-105"/>
    </defs>
    <g style="fill:#0000cd;" transform="translate(73.832727 57.43872)scale(0.1 -0.1)">
     <use xlink:href="#DejaVuSans-101"/>
     <use x="61.523438" xlink:href="#DejaVuSans-97"/>
     <use x="122.802734" xlink:href="#DejaVuSans-115"/>
     <use x="174.902344" xlink:href="#DejaVuSans-116"/>
     <use x="214.111328" xlink:href="#DejaVuSans-97"/>
     <use x="275.390625" xlink:href="#DejaVuSans-115"/>
     <use x="327.490234" xlink:href="#DejaVuSans-105"/>
     <use x="355.273438" xlink:href="#DejaVuSans-97"/>
    </g>
   </g>
   <g id="text_17">
    <!-- europe -->
    <defs>
     <path d="M 8.5 21.578125 
L 8.5 54.6875 
L 17.484375 54.6875 
L 17.484375 21.921875 
Q 17.484375 14.15625 20.5 10.265625 
Q 23.53125 6.390625 29.59375 6.390625 
Q 36.859375 6.390625 41.078125 11.03125 
Q 45.3125 15.671875 45.3125 23.6875 
L 45.3125 54.6875 
L 54.296875 54.6875 
L 54.296875 0 
L 45.3125 0 
L 45.3125 8.40625 
Q 42.046875 3.421875 37.71875 1 
Q 33.40625 -1.421875 27.6875 -1.421875 
Q 18.265625 -1.421875 13.375 4.4375 
Q 8.5 10.296875 8.5 21.578125 
z
M 31.109375 56 
z
" id="DejaVuSans-117"/>
     <path d="M 41.109375 46.296875 
Q 39.59375 47.171875 37.8125 47.578125 
Q 36.03125 48 33.890625 48 
Q 26.265625 48 22.1875 43.046875 
Q 18.109375 38.09375 18.109375 28.8125 
L 18.109375 0 
L 9.078125 0 
L 9.078125 54.6875 
L 18.109375 54.6875 
L 18.109375 46.1875 
Q 20.953125 51.171875 25.484375 53.578125 
Q 30.03125 56 36.53125 56 
Q 37.453125 56 38.578125 55.875 
Q 39.703125 55.765625 41.0625 55.515625 
z
" id="DejaVuSans-114"/>
     <path d="M 30.609375 48.390625 
Q 23.390625 48.390625 19.1875 42.75 
Q 14.984375 37.109375 14.984375 27.296875 
Q 14.984375 17.484375 19.15625 11.84375 
Q 23.34375 6.203125 30.609375 6.203125 
Q 37.796875 6.203125 41.984375 11.859375 
Q 46.1875 17.53125 46.1875 27.296875 
Q 46.1875 37.015625 41.984375 42.703125 
Q 37.796875 48.390625 30.609375 48.390625 
z
M 30.609375 56 
Q 42.328125 56 49.015625 48.375 
Q 55.71875 40.765625 55.71875 27.296875 
Q 55.71875 13.875 49.015625 6.21875 
Q 42.328125 -1.421875 30.609375 -1.421875 
Q 18.84375 -1.421875 12.171875 6.21875 
Q 5.515625 13.875 5.515625 27.296875 
Q 5.515625 40.765625 12.171875 48.375 
Q 18.84375 56 30.609375 56 
z
" id="DejaVuSans-111"/>
     <path d="M 18.109375 8.203125 
L 18.109375 -20.796875 
L 9.078125 -20.796875 
L 9.078125 54.6875 
L 18.109375 54.6875 
L 18.109375 46.390625 
Q 20.953125 51.265625 25.265625 53.625 
Q 29.59375 56 35.59375 56 
Q 45.5625 56 51.78125 48.09375 
Q 58.015625 40.1875 58.015625 27.296875 
Q 58.015625 14.40625 51.78125 6.484375 
Q 45.5625 -1.421875 35.59375 -1.421875 
Q 29.59375 -1.421875 25.265625 0.953125 
Q 20.953125 3.328125 18.109375 8.203125 
z
M 48.6875 27.296875 
Q 48.6875 37.203125 44.609375 42.84375 
Q 40.53125 48.484375 33.40625 48.484375 
Q 26.265625 48.484375 22.1875 42.84375 
Q 18.109375 37.203125 18.109375 27.296875 
Q 18.109375 17.390625 22.1875 11.75 
Q 26.265625 6.109375 33.40625 6.109375 
Q 40.53125 6.109375 44.609375 11.75 
Q 48.6875 17.390625 48.6875 27.296875 
z
" id="DejaVuSans-112"/>
    </defs>
    <g style="fill:#ff00ff;" transform="translate(73.832727 68.0832)scale(0.1 -0.1)">
     <use xlink:href="#DejaVuSans-101"/>
     <use x="61.523438" xlink:href="#DejaVuSans-117"/>
     <use x="124.902344" xlink:href="#DejaVuSans-114"/>
     <use x="165.984375" xlink:href="#DejaVuSans-111"/>
     <use x="227.166016" xlink:href="#DejaVuSans-112"/>
     <use x="290.642578" xlink:href="#DejaVuSans-101"/>
    </g>
   </g>
   <g id="text_18">
    <!-- america -->
    <defs>
     <path d="M 52 44.1875 
Q 55.375 50.25 60.0625 53.125 
Q 64.75 56 71.09375 56 
Q 79.640625 56 84.28125 50.015625 
Q 88.921875 44.046875 88.921875 33.015625 
L 88.921875 0 
L 79.890625 0 
L 79.890625 32.71875 
Q 79.890625 40.578125 77.09375 44.375 
Q 74.3125 48.1875 68.609375 48.1875 
Q 61.625 48.1875 57.5625 43.546875 
Q 53.515625 38.921875 53.515625 30.90625 
L 53.515625 0 
L 44.484375 0 
L 44.484375 32.71875 
Q 44.484375 40.625 41.703125 44.40625 
Q 38.921875 48.1875 33.109375 48.1875 
Q 26.21875 48.1875 22.15625 43.53125 
Q 18.109375 38.875 18.109375 30.90625 
L 18.109375 0 
L 9.078125 0 
L 9.078125 54.6875 
L 18.109375 54.6875 
L 18.109375 46.1875 
Q 21.1875 51.21875 25.484375 53.609375 
Q 29.78125 56 35.6875 56 
Q 41.65625 56 45.828125 52.96875 
Q 50 49.953125 52 44.1875 
z
" id="DejaVuSans-109"/>
     <path d="M 48.78125 52.59375 
L 48.78125 44.1875 
Q 44.96875 46.296875 41.140625 47.34375 
Q 37.3125 48.390625 33.40625 48.390625 
Q 24.65625 48.390625 19.8125 42.84375 
Q 14.984375 37.3125 14.984375 27.296875 
Q 14.984375 17.28125 19.8125 11.734375 
Q 24.65625 6.203125 33.40625 6.203125 
Q 37.3125 6.203125 41.140625 7.25 
Q 44.96875 8.296875 48.78125 10.40625 
L 48.78125 2.09375 
Q 45.015625 0.34375 40.984375 -0.53125 
Q 36.96875 -1.421875 32.421875 -1.421875 
Q 20.0625 -1.421875 12.78125 6.34375 
Q 5.515625 14.109375 5.515625 27.296875 
Q 5.515625 40.671875 12.859375 48.328125 
Q 20.21875 56 33.015625 56 
Q 37.15625 56 41.109375 55.140625 
Q 45.0625 54.296875 48.78125 52.59375 
z
" id="DejaVuSans-99"/>
    </defs>
    <g style="fill:#228b22;" transform="translate(73.832727 78.72768)scale(0.1 -0.1)">
     <use xlink:href="#DejaVuSans-97"/>
     <use x="61.279297" xlink:href="#DejaVuSans-109"/>
     <use x="158.691406" xlink:href="#DejaVuSans-101"/>
     <use x="220.214844" xlink:href="#DejaVuSans-114"/>
     <use x="261.328125" xlink:href="#DejaVuSans-105"/>
     <use x="289.111328" xlink:href="#DejaVuSans-99"/>
     <use x="344.091797" xlink:href="#DejaVuSans-97"/>
    </g>
   </g>
   <g id="text_19">
    <!-- oceania -->
    <defs>
     <path d="M 54.890625 33.015625 
L 54.890625 0 
L 45.90625 0 
L 45.90625 32.71875 
Q 45.90625 40.484375 42.875 44.328125 
Q 39.84375 48.1875 33.796875 48.1875 
Q 26.515625 48.1875 22.3125 43.546875 
Q 18.109375 38.921875 18.109375 30.90625 
L 18.109375 0 
L 9.078125 0 
L 9.078125 54.6875 
L 18.109375 54.6875 
L 18.109375 46.1875 
Q 21.34375 51.125 25.703125 53.5625 
Q 30.078125 56 35.796875 56 
Q 45.21875 56 50.046875 50.171875 
Q 54.890625 44.34375 54.890625 33.015625 
z
" id="DejaVuSans-110"/>
    </defs>
    <g style="fill:#dc143c;" transform="translate(73.832727 89.37216)scale(0.1 -0.1)">
     <use xlink:href="#DejaVuSans-111"/>
     <use x="61.181641" xlink:href="#DejaVuSans-99"/>
     <use x="116.162109" xlink:href="#DejaVuSans-101"/>
     <use x="177.685547" xlink:href="#DejaVuSans-97"/>
     <use x="238.964844" xlink:href="#DejaVuSans-110"/>
     <use x="302.34375" xlink:href="#DejaVuSans-105"/>
     <use x="330.126953" xlink:href="#DejaVuSans-97"/>
    </g>
   </g>
   <g id="text_20">
    <!-- middleeast -->
    <defs>
     <path d="M 45.40625 46.390625 
L 45.40625 75.984375 
L 54.390625 75.984375 
L 54.390625 0 
L 45.40625 0 
L 45.40625 8.203125 
Q 42.578125 3.328125 38.25 0.953125 
Q 33.9375 -1.421875 27.875 -1.421875 
Q 17.96875 -1.421875 11.734375 6.484375 
Q 5.515625 14.40625 5.515625 27.296875 
Q 5.515625 40.1875 11.734375 48.09375 
Q 17.96875 56 27.875 56 
Q 33.9375 56 38.25 53.625 
Q 42.578125 51.265625 45.40625 46.390625 
z
M 14.796875 27.296875 
Q 14.796875 17.390625 18.875 11.75 
Q 22.953125 6.109375 30.078125 6.109375 
Q 37.203125 6.109375 41.296875 11.75 
Q 45.40625 17.390625 45.40625 27.296875 
Q 45.40625 37.203125 41.296875 42.84375 
Q 37.203125 48.484375 30.078125 48.484375 
Q 22.953125 48.484375 18.875 42.84375 
Q 14.796875 37.203125 14.796875 27.296875 
z
" id="DejaVuSans-100"/>
     <path d="M 9.421875 75.984375 
L 18.40625 75.984375 
L 18.40625 0 
L 9.421875 0 
z
" id="DejaVuSans-108"/>
    </defs>
    <g style="fill:#d2691e;" transform="translate(73.832727 100.01664)scale(0.1 -0.1)">
     <use xlink:href="#DejaVuSans-109"/>
     <use x="97.412109" xlink:href="#DejaVuSans-105"/>
     <use x="125.195312" xlink:href="#DejaVuSans-100"/>
     <use x="188.671875" xlink:href="#DejaVuSans-100"/>
     <use x="252.148438" xlink:href="#DejaVuSans-108"/>
     <use x="279.931641" xlink:href="#DejaVuSans-101"/>
     <use x="341.455078" xlink:href="#DejaVuSans-101"/>
     <use x="402.978516" xlink:href="#DejaVuSans-97"/>
     <use x="464.257812" xlink:href="#DejaVuSans-115"/>
     <use x="516.357422" xlink:href="#DejaVuSans-116"/>
    </g>
   </g>
   <g id="text_21">
    <!-- africa -->
    <defs>
     <path d="M 37.109375 75.984375 
L 37.109375 68.5 
L 28.515625 68.5 
Q 23.6875 68.5 21.796875 66.546875 
Q 19.921875 64.59375 19.921875 59.515625 
L 19.921875 54.6875 
L 34.71875 54.6875 
L 34.71875 47.703125 
L 19.921875 47.703125 
L 19.921875 0 
L 10.890625 0 
L 10.890625 47.703125 
L 2.296875 47.703125 
L 2.296875 54.6875 
L 10.890625 54.6875 
L 10.890625 58.5 
Q 10.890625 67.625 15.140625 71.796875 
Q 19.390625 75.984375 28.609375 75.984375 
z
" id="DejaVuSans-102"/>
    </defs>
    <g transform="translate(73.832727 110.66112)scale(0.1 -0.1)">
     <use xlink:href="#DejaVuSans-97"/>
     <use x="61.279297" xlink:href="#DejaVuSans-102"/>
     <use x="96.484375" xlink:href="#DejaVuSans-114"/>
     <use x="137.597656" xlink:href="#DejaVuSans-105"/>
     <use x="165.380859" xlink:href="#DejaVuSans-99"/>
     <use x="220.361328" xlink:href="#DejaVuSans-97"/>
    </g>
   </g>
   <g id="text_22">
    <!-- southasia -->
    <defs>
     <path d="M 54.890625 33.015625 
L 54.890625 0 
L 45.90625 0 
L 45.90625 32.71875 
Q 45.90625 40.484375 42.875 44.328125 
Q 39.84375 48.1875 33.796875 48.1875 
Q 26.515625 48.1875 22.3125 43.546875 
Q 18.109375 38.921875 18.109375 30.90625 
L 18.109375 0 
L 9.078125 0 
L 9.078125 75.984375 
L 18.109375 75.984375 
L 18.109375 46.1875 
Q 21.34375 51.125 25.703125 53.5625 
Q 30.078125 56 35.796875 56 
Q 45.21875 56 50.046875 50.171875 
Q 54.890625 44.34375 54.890625 33.015625 
z
" id="DejaVuSans-104"/>
    </defs>
    <g style="fill:#9400d3;" transform="translate(73.832727 121.3056)scale(0.1 -0.1)">
     <use xlink:href="#DejaVuSans-115"/>
     <use x="52.099609" xlink:href="#DejaVuSans-111"/>
     <use x="113.28125" xlink:href="#DejaVuSans-117"/>
     <use x="176.660156" xlink:href="#DejaVuSans-116"/>
     <use x="215.869141" xlink:href="#DejaVuSans-104"/>
     <use x="279.248047" xlink:href="#DejaVuSans-97"/>
     <use x="340.527344" xlink:href="#DejaVuSans-115"/>
     <use x="392.626953" xlink:href="#DejaVuSans-105"/>
     <use x="420.410156" xlink:href="#DejaVuSans-97"/>
    </g>
   </g>
   <g id="text_23">
    <!-- ปริมาณชาวต่างชาติที่เข้าประเทศไทยตอนฤดูฝนช่วง 6 ปี -->
    <defs>
     <path d="M 28.71875 8.40625 
Q 30.109375 10.6875 30.109375 14.5 
Q 30.109375 19.3125 27.484375 21.796875 
Q 26.125 23.078125 21.5 23.953125 
Q 16.875 24.828125 12.984375 25.515625 
Q 9.109375 26.203125 6.328125 27.484375 
Q 3.546875 28.765625 3.203125 31.203125 
Q 3.203125 34.90625 6.375 37.328125 
Q 9.546875 39.765625 14.984375 40.203125 
Q 15.890625 40.3125 17.40625 40.3125 
Q 19.3125 40.3125 20.5625 40.09375 
Q 21.828125 39.875 23.671875 39.375 
Q 25.515625 38.890625 26.359375 38.734375 
Q 27.21875 38.59375 28.59375 38.59375 
Q 29.9375 38.59375 30.65625 39.28125 
Q 31.375 39.984375 31.90625 39.984375 
Q 32.796875 39.984375 33.578125 39.0625 
Q 34.359375 38.15625 34.5 36.6875 
Q 34.5 33.59375 30.90625 33.59375 
Q 30.421875 33.59375 29.203125 33.796875 
Q 27.6875 34.078125 25.484375 34.71875 
Q 23.296875 35.375 21.546875 35.734375 
Q 19.796875 36.109375 17.609375 36.109375 
Q 14.765625 36.03125 12.65625 35.125 
Q 10.546875 34.234375 9.796875 32.6875 
Q 9.796875 31.546875 11.765625 30.875 
Q 13.75 30.21875 18.25 29.46875 
Q 22.75 28.71875 25.625 28.0625 
Q 28.515625 27.421875 30.8125 26.203125 
Q 36.3125 23.3125 36.3125 14.984375 
Q 36.3125 10.96875 35.109375 7.78125 
Q 33.71875 3.828125 29.609375 1.75 
Q 25.515625 -0.3125 19.609375 -0.390625 
Q 13.9375 -0.390625 9.5625 1.59375 
Q 5.203125 3.59375 5.203125 8.015625 
Q 5.609375 11.796875 9.203125 11.796875 
Q 10.796875 11.71875 11.640625 10.8125 
Q 12.5 9.90625 12.5 8.59375 
Q 12.5 7.8125 12.015625 7 
Q 11.59375 6.21875 11.59375 6 
Q 11.59375 4.59375 14.171875 3.890625 
Q 16.75 3.203125 19.40625 3.203125 
Q 25.6875 3.34375 28.71875 8.40625 
z
" id="JasmineUPC-3619"/>
     <path d="M 34.40625 14.3125 
L 34.40625 32.78125 
Q 34.40625 34.515625 34.015625 35.15625 
Q 33.640625 35.796875 32.9375 36.484375 
Q 32.234375 37.1875 32.203125 37.890625 
Q 32.203125 39.234375 32.9375 39.609375 
Q 33.6875 39.984375 35.40625 39.984375 
L 37.59375 39.984375 
Q 40.84375 39.984375 41.921875 39.671875 
Q 43 39.375 43 37.890625 
Q 42.96875 37.25 42.25 36.453125 
Q 41.53125 35.671875 41.15625 35.03125 
Q 40.796875 34.40625 40.796875 32.78125 
L 40.796875 14.40625 
Q 40.796875 8.15625 37.625 4.109375 
Q 34.46875 0.078125 27.59375 -0.203125 
Q 23.21875 -0.203125 20.171875 0.828125 
Q 17.140625 1.859375 15.578125 3.046875 
Q 14.015625 4.25 13.890625 4.59375 
Q 13.890625 3.265625 12.78125 1.53125 
Q 11.671875 -0.203125 8.296875 -0.203125 
Q 6.234375 -0.125 5.015625 1.28125 
Q 3.8125 2.703125 3.8125 4.59375 
Q 3.8125 5.859375 4.5 7.109375 
Q 5.28125 8.515625 6.453125 8.90625 
Q 7.640625 9.296875 9.796875 9.296875 
Q 9.453125 9.296875 9.109375 11.109375 
Q 8.796875 12.890625 8.796875 14.40625 
L 8.796875 32 
Q 8.796875 33.015625 8.25 33.546875 
Q 7.71875 34.078125 6.609375 34.65625 
Q 5.5 35.234375 5.109375 35.578125 
Q 4.71875 35.9375 4.71875 36.6875 
Q 4.859375 38.0625 7.140625 39.1875 
Q 9.421875 40.3125 11.59375 40.3125 
Q 12.703125 40.3125 13.109375 40.09375 
Q 14.546875 39.484375 14.875 37.640625 
Q 15.21875 35.8125 15.21875 32.296875 
L 15.21875 12.796875 
Q 15.21875 9.203125 18.28125 6.796875 
Q 21.34375 4.390625 25.90625 4.390625 
Q 34.40625 4.90625 34.40625 14.3125 
z
" id="JasmineUPC-3617"/>
     <path d="M 54.390625 3.59375 
Q 53.9375 2.6875 51.28125 1.234375 
Q 48.640625 -0.203125 43.5 -0.203125 
Q 32.5 0.359375 32.5 12.59375 
L 32.5 26.296875 
Q 32.5 30.5 30.84375 33.09375 
Q 29.203125 35.6875 22.90625 36.015625 
Q 20.046875 36.015625 17.671875 35.40625 
Q 15.3125 34.796875 13.953125 33.84375 
Q 12.59375 32.90625 12.59375 31.90625 
Q 12.59375 31.34375 13.046875 30.96875 
Q 13.5 30.59375 14.625 29.890625 
Q 15.765625 29.203125 16.359375 28.65625 
Q 16.96875 28.125 17 27.390625 
Q 17 26.53125 15.453125 25.1875 
Q 13.921875 23.859375 13.3125 23.140625 
Q 12.703125 22.4375 12.703125 20.796875 
L 12.703125 9.796875 
Q 12.703125 7.640625 13.484375 6.765625 
Q 14.265625 5.890625 15.5625 5.3125 
Q 16.875 4.734375 17 4.203125 
Q 17 2.546875 14.765625 1.171875 
Q 12.53125 -0.203125 10.203125 -0.203125 
Q 8.46875 0.03125 7.375 2.390625 
Q 6.296875 4.765625 6.296875 9.015625 
L 6.296875 19.3125 
Q 6.296875 21.609375 7.15625 22.796875 
Q 8.015625 24 9.34375 25.03125 
Q 10.6875 26.078125 10.6875 26.703125 
Q 10.6875 27.3125 9.046875 28.09375 
Q 7.40625 28.875 6.6875 29.328125 
Q 5.984375 29.78125 5.8125 31 
Q 5.8125 34.671875 11.109375 37.59375 
Q 15.609375 40.203125 22.40625 40.203125 
Q 28.90625 40.203125 32.90625 37.890625 
Q 36.359375 35.96875 37.625 33.3125 
Q 38.890625 30.671875 38.890625 26.296875 
L 38.890625 11.796875 
Q 38.890625 7.90625 40.6875 6.046875 
Q 42.484375 4.203125 46.609375 4.203125 
Q 51 4.46875 53.140625 7.5 
Q 55.296875 10.546875 55.296875 14.703125 
L 55.296875 30.390625 
Q 55.296875 32.171875 54.703125 32.828125 
Q 54.125 33.5 52.796875 34.5 
Q 51.484375 35.5 51.484375 36.296875 
Q 51.609375 37.453125 53.890625 38.828125 
Q 56.171875 40.203125 58.296875 40.203125 
Q 61.703125 39.96875 61.703125 29 
L 61.703125 16.09375 
Q 61.703125 14.625 61.203125 12.3125 
Q 61.0625 11.546875 60.71875 10.9375 
Q 60.375 10.328125 60.203125 10.015625 
Q 60.71875 10.015625 61.71875 9.59375 
Q 62.71875 9.1875 63.203125 8.59375 
Q 64.703125 7.109375 64.703125 4.8125 
Q 64.703125 3.15625 63.796875 1.8125 
Q 62.359375 -0.296875 59.40625 -0.296875 
Q 57.984375 -0.296875 56.8125 0.296875 
Q 55.296875 1.046875 54.84375 2.0625 
Q 54.390625 3.078125 54.390625 3.59375 
z
" id="JasmineUPC-3603"/>
     <path d="M 20.515625 35.796875 
Q 24.75 40.5 30.296875 40.5 
Q 33.125 40.5 35.796875 39.109375 
Q 40.703125 36.453125 40.703125 28.296875 
L 40.703125 7.203125 
Q 40.703125 5.59375 41.0625 4.953125 
Q 41.4375 4.328125 42.15625 3.546875 
Q 42.875 2.78125 42.890625 2.09375 
Q 42.890625 0.65625 41.8125 0.328125 
Q 40.75 0 37.5 0 
L 35.296875 0 
Q 33.59375 0 32.84375 0.390625 
Q 32.109375 0.78125 32.109375 2.09375 
Q 32.125 2.8125 32.859375 3.53125 
Q 33.59375 4.265625 33.9375 4.890625 
Q 34.296875 5.515625 34.296875 7.203125 
L 34.296875 28.296875 
Q 34.296875 34.734375 29.390625 35.296875 
Q 25.859375 35.296875 23.34375 32.984375 
Q 20.828125 30.6875 18.609375 26.90625 
Q 15.96875 22.484375 15.03125 17.796875 
Q 14.109375 13.109375 14.109375 10.015625 
L 14.109375 7.203125 
Q 14.109375 5.671875 14.5 4.96875 
Q 14.890625 4.265625 15.640625 3.515625 
Q 16.390625 2.765625 16.40625 2.09375 
Q 16.40625 0.65625 15.328125 0.328125 
Q 14.265625 0 11.015625 0 
L 8.90625 0 
Q 7.171875 0 6.375 0.40625 
Q 5.59375 0.8125 5.59375 2.09375 
Q 5.671875 2.8125 6.328125 3.5 
Q 6.984375 4.203125 7.328125 4.875 
Q 7.6875 5.5625 7.6875 7.203125 
L 7.6875 32 
Q 7.6875 33.015625 7.15625 33.546875 
Q 6.625 34.078125 5.53125 34.625 
Q 4.4375 35.1875 4.015625 35.5625 
Q 3.59375 35.9375 3.59375 36.6875 
Q 3.765625 38.0625 6.03125 39.1875 
Q 8.296875 40.3125 10.5 40.3125 
Q 11.59375 40.3125 12.015625 40.09375 
Q 13.453125 39.484375 13.78125 37.640625 
Q 14.109375 35.8125 14.109375 32.296875 
L 14.109375 27.90625 
L 13.40625 22.796875 
Q 13.40625 23.53125 15.3125 27.78125 
Q 17.234375 32.03125 20.515625 35.796875 
z
" id="JasmineUPC-3607"/>
     <path d="M 12.703125 9.796875 
Q 12.703125 7.640625 13.484375 6.765625 
Q 14.265625 5.890625 15.5625 5.3125 
Q 16.875 4.734375 17 4.203125 
Q 17 2.546875 14.765625 1.171875 
Q 12.53125 -0.203125 10.203125 -0.203125 
Q 8.46875 0.03125 7.375 2.390625 
Q 6.296875 4.765625 6.296875 9.015625 
L 6.296875 32.78125 
Q 6.296875 34.515625 5.921875 35.15625 
Q 5.546875 35.796875 4.828125 36.484375 
Q 4.125 37.1875 4.109375 37.890625 
Q 4.109375 39.234375 4.84375 39.609375 
Q 5.59375 39.984375 7.296875 39.984375 
L 9.5 39.984375 
Q 12.75 39.984375 13.8125 39.671875 
Q 14.890625 39.375 14.890625 37.890625 
Q 14.875 37.25 14.140625 36.453125 
Q 13.421875 35.671875 13.0625 35.03125 
Q 12.703125 34.40625 12.703125 32.78125 
z
" id="JasmineUPC-3648"/>
     <path d="M 13.203125 19.09375 
L 13.203125 11.890625 
Q 13.203125 7.515625 14.875 5.75 
Q 16.546875 4 20.609375 4 
Q 24.953125 4 26.375 6 
Q 27.8125 8.015625 27.8125 11.890625 
L 27.8125 32.78125 
Q 27.8125 34.515625 27.421875 35.15625 
Q 27.046875 35.796875 26.34375 36.484375 
Q 25.640625 37.1875 25.609375 37.890625 
Q 25.609375 39.234375 26.34375 39.609375 
Q 27.09375 39.984375 28.8125 39.984375 
L 31 39.984375 
Q 34.25 39.984375 35.328125 39.671875 
Q 36.40625 39.375 36.40625 37.890625 
Q 36.375 37.25 35.65625 36.453125 
Q 34.9375 35.671875 34.5625 35.03125 
Q 34.203125 34.40625 34.203125 32.78125 
L 34.203125 11.296875 
Q 34.203125 -0.203125 20.609375 -0.203125 
Q 6.6875 -0.203125 6.6875 11.296875 
L 6.6875 19 
Q 6.6875 21.921875 8.40625 24 
Q 9.375 25.078125 11.453125 26.765625 
Q 13.546875 28.46875 14.515625 29.734375 
Q 15.5 31 15.5 32.78125 
Q 15.4375 34.0625 14.4375 34.828125 
Q 13.453125 35.59375 12.203125 35.59375 
Q 10.546875 35.59375 9.6875 34.203125 
Q 9.28125 33.453125 8.921875 31.890625 
Q 8.578125 30.34375 8.0625 29.578125 
Q 7.546875 28.8125 6.203125 28.71875 
Q 4.765625 28.78125 3.828125 30.015625 
Q 2.90625 31.25 2.90625 32.90625 
Q 2.90625 34.328125 3.390625 35.203125 
Q 6 39.8125 12.203125 40.09375 
Q 14.84375 40.09375 17.140625 39.046875 
Q 19.4375 38.015625 20.765625 36.34375 
Q 22.09375 34.6875 22.09375 32.90625 
Q 22.078125 31.171875 21.078125 29.84375 
Q 20.09375 28.515625 17.78125 26.578125 
Q 15.484375 24.640625 14.890625 24 
Q 13.875 22.875 13.53125 22.0625 
Q 13.203125 21.265625 13.203125 19.09375 
z
" id="JasmineUPC-3586"/>
     <path d="M 9.109375 31 
Q 10.359375 29.296875 14.109375 29.296875 
Q 17.09375 29.296875 19.796875 30.6875 
Q 21.125 31.46875 21.625 32.046875 
Q 22.125 32.640625 22.796875 33.71875 
Q 23.484375 34.796875 23.90625 34.796875 
Q 24.90625 34.796875 24.90625 32.109375 
Q 24.90625 31.078125 24.703125 29.71875 
Q 24.484375 28.4375 21.0625 27.25 
Q 17.65625 26.078125 14.203125 26 
Q 9.796875 26 6.40625 27.140625 
Q 3.03125 28.296875 2.71875 30.90625 
Q 2.71875 32.5 4.578125 33.84375 
Q 6.453125 35.203125 8.40625 35.203125 
Q 9.015625 34.90625 9.015625 34.296875 
Q 9.015625 33.90625 8.84375 33.25 
Q 8.6875 32.59375 8.6875 32.203125 
Q 8.6875 31.515625 9.109375 31 
z
M 9.109375 10.203125 
Q 10.359375 8.5 14.109375 8.5 
Q 17.109375 8.5 19.796875 9.90625 
Q 21.5625 10.90625 22.53125 12.4375 
Q 23.515625 13.984375 23.90625 13.984375 
Q 24.90625 13.984375 24.90625 11.296875 
Q 24.90625 10.28125 24.703125 8.90625 
Q 24.484375 7.640625 21.0625 6.453125 
Q 17.65625 5.28125 14.203125 5.203125 
Q 9.796875 5.203125 6.40625 6.34375 
Q 3.03125 7.5 2.71875 10.109375 
Q 2.71875 11.6875 4.578125 13.046875 
Q 6.453125 14.40625 8.40625 14.40625 
Q 9.015625 14.109375 9.015625 13.5 
Q 9.015625 13.109375 8.84375 12.453125 
Q 8.6875 11.796875 8.6875 11.40625 
Q 8.6875 10.71875 9.109375 10.203125 
z
" id="JasmineUPC-3632"/>
     <path d="M 39.5 26.296875 
L 39.5 7.203125 
Q 39.5 5.59375 39.859375 4.953125 
Q 40.234375 4.328125 40.953125 3.546875 
Q 41.671875 2.78125 41.703125 2.09375 
Q 41.703125 0.65625 40.625 0.328125 
Q 39.546875 0 36.3125 0 
L 34.109375 0 
Q 32.40625 0 31.65625 0.390625 
Q 30.90625 0.78125 30.90625 2.09375 
Q 30.9375 2.8125 31.671875 3.53125 
Q 32.40625 4.265625 32.75 4.890625 
Q 33.109375 5.515625 33.109375 7.203125 
L 33.109375 26.296875 
Q 33.109375 35.765625 22.796875 36.015625 
Q 12.578125 36.015625 11.5 25.90625 
Q 11.40625 25 11.40625 23.09375 
Q 11.40625 18.015625 12.359375 12.625 
Q 13.3125 7.25 14.5 5.90625 
Q 14.5 7.34375 16.796875 17.890625 
Q 17.953125 23.09375 19.0625 26 
Q 20.171875 28.90625 21.796875 29.296875 
Q 24.265625 29.296875 26.421875 28.1875 
Q 28.59375 27.09375 28.8125 25.703125 
Q 28.8125 25 28.34375 24.703125 
Q 27.875 24.421875 26.84375 24.09375 
Q 25.828125 23.78125 25.171875 23.390625 
Q 24.53125 23.015625 24.203125 22.1875 
Q 21.53125 14.546875 19.3125 3.484375 
Q 18.78125 1.140625 17.609375 0.5625 
Q 16.4375 0 14.203125 0 
Q 12.453125 0 11.453125 0.328125 
Q 10.453125 0.65625 9.59375 1.84375 
Q 8.734375 3.046875 7.796875 5.59375 
Q 5 13.359375 5 21.1875 
Q 5 28.515625 7.6875 33.203125 
Q 11.75 40.3125 22.09375 40.3125 
Q 25.3125 40.3125 28.078125 39.703125 
Q 30.859375 39.09375 31.5 38.59375 
Q 31.890625 38.59375 32.578125 39 
Q 33.28125 39.40625 33.59375 39.984375 
Q 33.796875 40.40625 33.90625 40.859375 
Q 34.015625 41.328125 34.03125 41.71875 
Q 34.0625 42.109375 34.109375 42.609375 
Q 34.25 43.3125 37.5 43.3125 
Q 41.265625 43.3125 41.40625 42.703125 
Q 41.40625 39.984375 39.3125 38.203125 
Q 38.359375 37.375 37.1875 36.890625 
Q 36.015625 36.40625 35.59375 36.40625 
Q 36.15625 36.03125 37.15625 34.953125 
Q 38.15625 33.890625 38.703125 32.203125 
Q 39.5 29.8125 39.5 26.296875 
z
" id="JasmineUPC-3624"/>
     <path d="M 13.59375 56.8125 
Q 13.203125 57.203125 12.796875 57.203125 
Q 12.203125 57.203125 10.71875 55.796875 
Q 9.25 54.390625 8.296875 54.390625 
Q 7.375 54.4375 5.765625 55.859375 
Q 4.171875 57.296875 3.5 57.296875 
Q 1.90625 56.9375 1.90625 55.6875 
Q 1.90625 55.46875 1.953125 55.140625 
Q 2 54.828125 2 54.71875 
Q 2 53.8125 0.90625 53.71875 
Q -0.3125 53.71875 -1.15625 54.65625 
Q -2 55.609375 -2 57.390625 
Q -1.9375 59.28125 -0.5625 60.640625 
Q 0.8125 62.015625 2.71875 62.015625 
Q 4.15625 61.9375 5 61.328125 
Q 5.859375 60.71875 6.84375 59.65625 
Q 7.84375 58.59375 8.296875 58.59375 
Q 8.890625 58.59375 10.984375 60.296875 
Q 13.09375 62.015625 14.59375 62.015625 
Q 16.78125 62.015625 18.1875 60.4375 
Q 19.609375 58.859375 19.609375 56.8125 
Q 19.578125 55.6875 19.03125 54.75 
Q 18.5 53.8125 17.546875 52.59375 
Q 16.609375 51.375 16.15625 50.578125 
Q 15.703125 49.78125 15.703125 48.90625 
L 15.703125 9.796875 
Q 15.703125 7.640625 16.484375 6.765625 
Q 17.265625 5.890625 18.5625 5.3125 
Q 19.875 4.734375 20 4.203125 
Q 20 2.546875 17.765625 1.171875 
Q 15.53125 -0.203125 13.203125 -0.203125 
Q 11.46875 0.03125 10.375 2.390625 
Q 9.296875 4.765625 9.296875 9.015625 
L 9.296875 47.703125 
Q 9.296875 49.265625 10.046875 50.390625 
Q 10.796875 51.515625 12.34375 53.40625 
Q 13.890625 55.296875 13.890625 56 
Q 13.890625 56.46875 13.59375 56.8125 
z
" id="JasmineUPC-3652"/>
     <path d="M 12.796875 23.515625 
Q 10.203125 21.484375 10.203125 15.796875 
Q 10.203125 9.640625 13.3125 7 
Q 16.546875 4.203125 20.609375 4.203125 
Q 23.640625 4.203125 26.1875 5.875 
Q 28.734375 7.546875 29.90625 10.59375 
Q 31.8125 15.203125 31.8125 21.40625 
Q 31.8125 29.609375 27.90625 33.40625 
Q 25.203125 36.109375 19.703125 36.109375 
Q 15.828125 36.109375 13.5 34.40625 
Q 12.890625 33.953125 12.046875 32.625 
Q 11.203125 31.296875 10.109375 30.8125 
Q 9.375 30.5 8.5 30.5 
Q 6 30.671875 6 33.59375 
Q 6.84375 36.640625 10.9375 38.421875 
Q 15.046875 40.203125 20.703125 40.203125 
Q 26.640625 40.0625 30.609375 37.703125 
Q 34.578125 35.359375 36.484375 31.234375 
Q 38.40625 27.125 38.40625 21.796875 
Q 38.40625 12.40625 34.65625 6.15625 
Q 30.90625 -0.09375 21.515625 -0.296875 
Q 13.765625 -0.296875 9 3.421875 
Q 4.25 7.15625 4.109375 14.703125 
Q 4.109375 21.921875 7.265625 25.515625 
Q 10.421875 29.109375 15.890625 29.109375 
Q 18.015625 29.03125 19.40625 27.765625 
Q 20.796875 26.515625 20.796875 25 
Q 20.796875 23.484375 19.40625 22.796875 
Q 18.734375 22.40625 18 22.40625 
Q 17.21875 22.40625 16.03125 23.203125 
Q 14.84375 24 14.203125 24 
Q 13.421875 24 12.796875 23.515625 
z
" id="JasmineUPC-3629"/>
     <path d="M 39.3125 26.296875 
L 39.3125 -7.203125 
Q 39.3125 -8.765625 39.640625 -9.375 
Q 39.984375 -9.984375 40.734375 -10.796875 
Q 41.484375 -11.625 41.5 -12.3125 
Q 41.5 -13.75 40.421875 -14.078125 
Q 39.359375 -14.40625 36.109375 -14.40625 
L 33.90625 -14.40625 
Q 32.203125 -14.40625 31.4375 -14 
Q 30.6875 -13.59375 30.6875 -12.3125 
Q 30.734375 -11.546875 31.46875 -10.828125 
Q 32.203125 -10.125 32.546875 -9.5 
Q 32.90625 -8.890625 32.90625 -7.203125 
L 32.90625 26.296875 
Q 32.90625 29.171875 32.390625 31.09375 
Q 31.890625 33.03125 29.671875 34.421875 
Q 27.46875 35.8125 22.90625 36.015625 
Q 20.046875 36.015625 17.671875 35.40625 
Q 15.3125 34.796875 13.953125 33.84375 
Q 12.59375 32.90625 12.59375 31.90625 
Q 12.59375 31.34375 13.046875 30.96875 
Q 13.5 30.59375 14.625 29.890625 
Q 15.765625 29.203125 16.359375 28.65625 
Q 16.96875 28.125 17 27.390625 
Q 17 26.53125 15.453125 25.1875 
Q 13.921875 23.859375 13.3125 23.140625 
Q 12.703125 22.4375 12.703125 20.796875 
L 12.703125 9.796875 
Q 12.703125 7.640625 13.484375 6.765625 
Q 14.265625 5.890625 15.5625 5.3125 
Q 16.875 4.734375 17 4.203125 
Q 17 2.546875 14.765625 1.171875 
Q 12.53125 -0.203125 10.203125 -0.203125 
Q 8.46875 0.03125 7.375 2.390625 
Q 6.296875 4.765625 6.296875 9.015625 
L 6.296875 19.3125 
Q 6.296875 21.609375 7.15625 22.796875 
Q 8.015625 24 9.34375 25.03125 
Q 10.6875 26.078125 10.6875 26.703125 
Q 10.6875 27.3125 9.046875 28.09375 
Q 7.40625 28.875 6.6875 29.328125 
Q 5.984375 29.78125 5.8125 31 
Q 5.8125 34.671875 11.109375 37.59375 
Q 15.609375 40.203125 22.609375 40.203125 
Q 29.296875 40.203125 33.296875 37.890625 
Q 36.765625 35.96875 38.03125 33.3125 
Q 39.3125 30.671875 39.3125 26.296875 
z
" id="JasmineUPC-3620"/>
     <path d="M 20.1875 3.59375 
Q 18.75 1.25 17.640625 0.625 
Q 16.546875 0 14.3125 0 
Q 12.328125 0 11.4375 0.359375 
Q 10.546875 0.734375 9.59375 2.09375 
Q 8.015625 4.5625 6.609375 10.28125 
Q 5.203125 16.015625 5.203125 21.515625 
Q 5.203125 28.90625 7.796875 32.90625 
Q 12.359375 40.3125 23.515625 40.3125 
Q 27.078125 40.3125 30.234375 39.53125 
Q 33.40625 38.75 34.6875 37.796875 
Q 38.28125 35.375 39.484375 32.78125 
Q 40.703125 30.203125 40.703125 26.296875 
L 40.703125 7.203125 
Q 40.703125 5.59375 41.0625 4.953125 
Q 41.4375 4.328125 42.15625 3.546875 
Q 42.875 2.78125 42.890625 2.09375 
Q 42.890625 0.65625 41.8125 0.328125 
Q 40.75 0 37.5 0 
L 35.296875 0 
Q 33.59375 0 32.84375 0.390625 
Q 32.109375 0.78125 32.109375 2.09375 
Q 32.125 2.8125 32.859375 3.53125 
Q 33.59375 4.265625 33.9375 4.890625 
Q 34.296875 5.515625 34.296875 7.203125 
L 34.296875 26.296875 
Q 34.296875 35.765625 24 36.015625 
Q 18.265625 36.015625 15.421875 33.1875 
Q 12.59375 30.375 12.109375 25.703125 
Q 12.015625 24.8125 12.015625 22.90625 
Q 12.015625 17.84375 12.96875 12.453125 
Q 13.921875 7.0625 15.09375 5.6875 
Q 15.625 6.546875 16.796875 8.671875 
Q 17.96875 10.796875 19.1875 13.59375 
Q 21.796875 19.40625 21.796875 23.390625 
Q 21.625 24.078125 21.140625 24.4375 
Q 20.65625 24.8125 19.890625 25.078125 
Q 19.125 25.359375 18.8125 25.546875 
Q 18.5 25.734375 18.5 26.203125 
Q 18.5 27.546875 20.6875 28.625 
Q 22.875 29.71875 25 29.71875 
Q 25.515625 29.71875 26.390625 29.5 
Q 28.390625 28.875 28.390625 25.296875 
Q 28.390625 24 28 21.609375 
Q 26.46875 13.921875 20.1875 3.59375 
z
" id="JasmineUPC-3604"/>
     <path d="M -18.3125 -7.5 
L -18.3125 -9.90625 
Q -18.3125 -13.109375 -14.890625 -13.109375 
Q -11.5 -13.109375 -11.5 -10.296875 
L -11.5 -8.40625 
Q -11.5 -7.84375 -12.1875 -7.109375 
Q -12.890625 -6.390625 -12.890625 -5.5 
Q -12.75 -4.203125 -11.796875 -3.796875 
Q -10.859375 -3.390625 -8.5 -3.390625 
Q -4.296875 -3.390625 -4.203125 -5.390625 
Q -4.203125 -6.328125 -4.75 -7.140625 
Q -5.296875 -7.953125 -5.296875 -8.5 
L -5.296875 -11.40625 
Q -5.296875 -14.359375 -8.15625 -15.671875 
Q -11.03125 -17 -15.21875 -17 
Q -25 -17 -25 -11.796875 
L -25 -10.40625 
Q -25 -8.953125 -26.09375 -8.40625 
Q -26.609375 -8.203125 -27.109375 -8.03125 
Q -27.609375 -7.859375 -27.9375 -7.59375 
Q -28.265625 -7.34375 -28.296875 -6.90625 
Q -28.296875 -5.546875 -26.234375 -4.46875 
Q -24.171875 -3.390625 -21.90625 -3.390625 
Q -20.453125 -3.390625 -19.609375 -4 
Q -18.3125 -4.828125 -18.3125 -7.5 
z
" id="JasmineUPC-3641"/>
     <path d="M 32.296875 -0.203125 
Q 29.546875 -0.203125 27.578125 1.828125 
Q 25.609375 3.859375 24.4375 6.453125 
Q 23.390625 8.765625 23.390625 8.984375 
Q 23.390625 9.015625 23.390625 9.015625 
Q 23.390625 9.015625 23.390625 8.984375 
Q 23.390625 8.765625 22.390625 6.46875 
Q 21.265625 3.90625 19.21875 1.84375 
Q 17.171875 -0.203125 14.109375 -0.203125 
Q 10.203125 -0.09375 8.375 2.921875 
Q 6.5625 5.9375 6.140625 9.734375 
Q 5.71875 13.546875 5.5 20 
Q 5.5 24.390625 6.078125 28.859375 
Q 6.671875 33.328125 7.640625 36.40625 
Q 8.625 39.5 9.6875 39.890625 
Q 10.109375 40.09375 11.203125 40.09375 
Q 13.375 40.09375 15.65625 38.96875 
Q 17.953125 37.859375 18.09375 36.5 
Q 18.09375 35.75 17.703125 35.40625 
Q 17.328125 35.078125 16.4375 34.65625 
Q 15.546875 34.25 14.921875 33.71875 
Q 14.3125 33.203125 13.890625 32.109375 
Q 12.5 27.9375 12.5 18.796875 
Q 12.71875 13.203125 13.3125 9.5 
Q 13.921875 5.8125 15.5 5.59375 
Q 16.828125 5.59375 18.078125 8.0625 
Q 19.34375 10.546875 20.171875 13.96875 
Q 21 17.390625 21 19.703125 
Q 21 20.78125 20.703125 21.40625 
Q 20.09375 22.625 20.09375 23.09375 
Q 20.09375 24.8125 23.515625 24.8125 
Q 26.8125 24.6875 26.8125 23.1875 
Q 26.8125 22.625 26.203125 21.40625 
Q 25.90625 20.796875 25.90625 19.1875 
Q 25.90625 15.203125 27.671875 10.390625 
Q 29.4375 5.59375 31.90625 5.59375 
Q 33.59375 5.59375 34 7.671875 
Q 34.40625 9.765625 34.40625 14.109375 
L 34.40625 50.203125 
Q 34.40625 51.984375 33.8125 52.640625 
Q 33.234375 53.296875 31.90625 54.296875 
Q 30.59375 55.296875 30.59375 56.109375 
Q 30.671875 57.25 32.96875 58.625 
Q 35.28125 60.015625 37.40625 60.015625 
Q 40.796875 59.765625 40.796875 48.796875 
L 40.796875 14.109375 
Q 40.796875 6.296875 38.5625 3.046875 
Q 36.328125 -0.203125 32.296875 -0.203125 
z
" id="JasmineUPC-3613"/>
     <path d="M 33.6875 41.796875 
Q 33.46875 41.65625 30.34375 41.296875 
Q 27.21875 40.9375 24.046875 39.625 
Q 20.875 38.328125 18 35.109375 
Q 15.0625 31.734375 13.6875 27.78125 
Q 12.3125 23.828125 12.3125 22.40625 
Q 12.453125 22.859375 13.75 24.140625 
Q 15.0625 25.421875 17.953125 26.5625 
Q 20.84375 27.703125 25.390625 27.703125 
Q 33.03125 27.703125 37.3125 23.953125 
Q 41.609375 20.21875 41.609375 13.109375 
Q 41.265625 6.546875 36.015625 3.171875 
Q 30.78125 -0.203125 23.390625 -0.203125 
Q 14.15625 -0.125 9.484375 4.640625 
Q 4.8125 9.40625 4.8125 17.09375 
Q 4.8125 18.21875 5 20.40625 
Q 6.03125 28.265625 9.59375 33.203125 
Q 13.15625 38.15625 17.5625 40.546875 
Q 21.96875 42.9375 25.734375 43.671875 
Q 29.5 44.40625 32.109375 44.40625 
Q 33.03125 44.40625 33.5625 43.84375 
Q 34.109375 43.28125 34.109375 42.609375 
Q 34.109375 42.046875 33.6875 41.796875 
z
M 23.609375 23.609375 
Q 18.1875 23.53125 15.1875 20.59375 
Q 12.203125 17.671875 12.203125 13.703125 
Q 12.203125 9.71875 15.203125 6.8125 
Q 18.21875 3.90625 23.609375 3.90625 
Q 27.25 3.90625 29.8125 5.296875 
Q 32.375 6.6875 33.640625 8.9375 
Q 34.90625 11.1875 34.90625 13.703125 
Q 34.90625 16.28125 33.625 18.546875 
Q 32.34375 20.828125 29.796875 22.21875 
Q 27.25 23.609375 23.609375 23.609375 
z
" id="JasmineUPC-54"/>
    </defs>
    <g transform="translate(75.000625 35.472)scale(0.2 -0.2)">
     <use xlink:href="#JasmineUPC-3611"/>
     <use x="46.411133" xlink:href="#JasmineUPC-3619"/>
     <use x="87.011719" xlink:href="#JasmineUPC-3636"/>
     <use x="87.011719" xlink:href="#JasmineUPC-3617"/>
     <use x="132.910156" xlink:href="#JasmineUPC-3634"/>
     <use x="166.40625" xlink:href="#JasmineUPC-3603"/>
     <use x="233.105469" xlink:href="#JasmineUPC-3594"/>
     <use x="271.411133" xlink:href="#JasmineUPC-3634"/>
     <use x="304.907227" xlink:href="#JasmineUPC-3623"/>
     <use x="344.506836" xlink:href="#JasmineUPC-3605"/>
     <use x="389.794922" xlink:href="#JasmineUPC-3656"/>
     <use x="389.794922" xlink:href="#JasmineUPC-3634"/>
     <use x="423.291016" xlink:href="#JasmineUPC-3591"/>
     <use x="460.791016" xlink:href="#JasmineUPC-3594"/>
     <use x="499.09668" xlink:href="#JasmineUPC-3634"/>
     <use x="532.592773" xlink:href="#JasmineUPC-3605"/>
     <use x="577.880859" xlink:href="#JasmineUPC-3636"/>
     <use x="577.880859" xlink:href="#JasmineUPC-3607"/>
     <use x="623.388672" xlink:href="#JasmineUPC-3637"/>
     <use x="623.388672" xlink:href="#JasmineUPC-3656"/>
     <use x="623.388672" xlink:href="#JasmineUPC-3648"/>
     <use x="641.894531" xlink:href="#JasmineUPC-3586"/>
     <use x="681.005859" xlink:href="#JasmineUPC-3657"/>
     <use x="681.005859" xlink:href="#JasmineUPC-3634"/>
     <use x="714.501953" xlink:href="#JasmineUPC-3611"/>
     <use x="760.913086" xlink:href="#JasmineUPC-3619"/>
     <use x="801.513672" xlink:href="#JasmineUPC-3632"/>
     <use x="827.807617" xlink:href="#JasmineUPC-3648"/>
     <use x="846.313477" xlink:href="#JasmineUPC-3607"/>
     <use x="891.821289" xlink:href="#JasmineUPC-3624"/>
     <use x="936.132812" xlink:href="#JasmineUPC-3652"/>
     <use x="957.324219" xlink:href="#JasmineUPC-3607"/>
     <use x="1002.832031" xlink:href="#JasmineUPC-3618"/>
     <use x="1046.630859" xlink:href="#JasmineUPC-3605"/>
     <use x="1091.918945" xlink:href="#JasmineUPC-3629"/>
     <use x="1133.813477" xlink:href="#JasmineUPC-3609"/>
     <use x="1178.90625" xlink:href="#JasmineUPC-3620"/>
     <use x="1223.217773" xlink:href="#JasmineUPC-3604"/>
     <use x="1268.725586" xlink:href="#JasmineUPC-3641"/>
     <use x="1268.725586" xlink:href="#JasmineUPC-3613"/>
     <use x="1314.526367" xlink:href="#JasmineUPC-3609"/>
     <use x="1359.619141" xlink:href="#JasmineUPC-3594"/>
     <use x="1397.924805" xlink:href="#JasmineUPC-3656"/>
     <use x="1397.924805" xlink:href="#JasmineUPC-3623"/>
     <use x="1437.524414" xlink:href="#JasmineUPC-3591"/>
     <use x="1475.024414" xlink:href="#JasmineUPC-32"/>
     <use x="1497.216797" xlink:href="#JasmineUPC-54"/>
     <use x="1542.919922" xlink:href="#JasmineUPC-32"/>
     <use x="1565.112305" xlink:href="#JasmineUPC-3611"/>
     <use x="1611.523438" xlink:href="#JasmineUPC-3637"/>
    </g>
   </g>
  </g>
 </g>
 <defs>
  <clipPath id="p36824cbec6">
   <rect height="266.112" width="357.12" x="57.6" y="41.472"/>
  </clipPath>
 </defs>
</svg>
